<?xml version="1.0" encoding="UTF-8"?>
<svg xmlns="http://www.w3.org/2000/svg" xmlns:xlink="http://www.w3.org/1999/xlink" width="165pt" height="82.499998pt" viewBox="0 0 165 82.499998" version="1.2">
<defs>
<clipPath id="clip1">
  <path d="M 0.496094 0 L 164.503906 0 L 164.503906 82.003906 L 0.496094 82.003906 Z M 0.496094 0 "/>
</clipPath>
<clipPath id="clip2">
  <path d="M 4 73 L 164 73 L 164 82.003906 L 4 82.003906 Z M 4 73 "/>
</clipPath>
</defs>
<g id="surface1">
<g clip-path="url(#clip1)" clip-rule="nonzero">
<path style=" stroke:none;fill-rule:nonzero;fill:rgb(100%,100%,100%);fill-opacity:1;" d="M 0.496094 0 L 164.503906 0 L 164.503906 82.003906 L 0.496094 82.003906 Z M 0.496094 0 "/>
<path style=" stroke:none;fill-rule:nonzero;fill:rgb(100%,100%,100%);fill-opacity:1;" d="M 0.496094 0 L 164.503906 0 L 164.503906 82.003906 L 0.496094 82.003906 Z M 0.496094 0 "/>
</g>
<path style=" stroke:none;fill-rule:nonzero;fill:rgb(100%,100%,100%);fill-opacity:1;" d="M 4.832031 -36.902344 L 163.140625 -36.902344 L 163.140625 8.289062 L 4.832031 8.289062 Z M 4.832031 -36.902344 "/>
<g clip-path="url(#clip2)" clip-rule="nonzero">
<path style=" stroke:none;fill-rule:nonzero;fill:rgb(100%,100%,100%);fill-opacity:1;" d="M 4.832031 73.800781 L 163.140625 73.800781 L 163.140625 118.996094 L 4.832031 118.996094 Z M 4.832031 73.800781 "/>
</g>
<path style=" stroke:none;fill-rule:nonzero;fill:rgb(90.19928%,58.81958%,11.759949%);fill-opacity:1;" d="M 37.230469 47.140625 C 36.144531 47.792969 34.867188 48.398438 33.492188 48.398438 C 29.816406 48.398438 26.777344 45.847656 26.300781 42.359375 L 25.53125 42.359375 C 25.515625 42.359375 25.5 41.640625 25.5 41.417969 C 25.5 36.90625 29.191406 33.082031 33.714844 33.082031 C 33.84375 33.082031 34.117188 32.96875 34.117188 32.96875 L 34.117188 33.71875 C 35.28125 33.8125 36.289062 34.148438 37.214844 34.707031 L 38.078125 33.242188 C 36.738281 32.445312 35.171875 31.996094 33.507812 31.996094 C 28.554688 31.996094 24.523438 35.996094 24.523438 40.9375 C 24.523438 45.878906 28.535156 49.878906 33.492188 49.878906 C 35.1875 49.878906 36.769531 49.417969 38.113281 48.605469 Z M 37.230469 47.140625 "/>
<path style=" stroke:none;fill-rule:nonzero;fill:rgb(90.19928%,58.81958%,11.759949%);fill-opacity:1;" d="M 34.117188 35.152344 L 34.117188 37.625 C 33.828125 37.589844 33.714844 37.574219 33.523438 37.574219 C 31.667969 37.574219 30.152344 39.296875 30.152344 41.160156 C 30.152344 41.496094 30.183594 42.359375 30.277344 42.359375 L 27.769531 42.359375 C 28.234375 44.988281 30.628906 46.980469 33.507812 46.980469 C 36.722656 46.980469 39.359375 44.269531 39.359375 41.066406 C 39.34375 38.023438 37.039062 35.441406 34.117188 35.152344 Z M 34.117188 35.152344 "/>
<path style=" stroke:none;fill-rule:nonzero;fill:rgb(0%,34.509277%,48.629761%);fill-opacity:1;" d="M 88.175781 27.933594 C 88.078125 28.316406 87.964844 28.699219 87.871094 29.097656 C 87.773438 29.511719 87.679688 29.925781 87.582031 30.339844 L 87.550781 30.386719 C 87.296875 30.5 86.847656 30.707031 86.082031 30.707031 C 85.503906 30.707031 84.914062 30.609375 84.449219 30.257812 C 83.714844 29.71875 83.617188 28.839844 83.617188 28.410156 C 83.617188 27.582031 83.96875 26.53125 84.769531 25.734375 C 85.121094 25.382812 85.855469 24.9375 86.910156 24.9375 C 87.789062 24.9375 88.191406 25.191406 88.511719 25.398438 L 88.527344 25.476562 L 88.382812 25.890625 L 88.316406 25.910156 C 88.140625 25.734375 88.015625 25.605469 87.648438 25.492188 C 87.421875 25.429688 87.167969 25.382812 86.847656 25.382812 C 86.066406 25.382812 85.519531 25.734375 85.28125 25.925781 C 84.386719 26.640625 84.128906 27.886719 84.128906 28.457031 C 84.128906 29.160156 84.496094 30.257812 86.066406 30.257812 C 86.433594 30.257812 86.785156 30.195312 87.121094 30.070312 L 87.261719 29.480469 C 87.421875 28.808594 87.457031 28.632812 87.550781 27.949219 L 87.597656 27.917969 L 88.109375 27.917969 Z M 88.175781 27.933594 "/>
<path style=" stroke:none;fill-rule:nonzero;fill:rgb(0%,34.509277%,48.629761%);fill-opacity:1;" d="M 89.613281 30.515625 L 89.566406 30.5625 L 89.101562 30.578125 L 89.070312 30.53125 L 89.355469 29.382812 L 89.53125 28.601562 C 89.582031 28.378906 89.628906 28.15625 89.675781 27.933594 C 89.820312 27.277344 89.820312 27.230469 89.917969 26.640625 L 89.964844 26.59375 L 90.445312 26.515625 L 90.476562 26.5625 L 90.332031 27.121094 C 90.554688 26.816406 90.8125 26.449219 91.339844 26.449219 C 91.53125 26.449219 91.59375 26.480469 91.691406 26.53125 L 91.707031 26.59375 L 91.5625 27.007812 L 91.484375 27.023438 C 91.386719 26.976562 91.308594 26.945312 91.179688 26.945312 C 91.097656 26.945312 90.730469 26.945312 90.414062 27.421875 C 90.171875 27.757812 90.027344 28.394531 89.917969 28.953125 L 89.757812 29.71875 Z M 89.613281 30.515625 "/>
<path style=" stroke:none;fill-rule:nonzero;fill:rgb(0%,34.509277%,48.629761%);fill-opacity:1;" d="M 95.304688 29.304688 C 95.175781 29.941406 95.144531 30.070312 95.078125 30.515625 L 95.03125 30.5625 L 94.585938 30.59375 L 94.550781 30.546875 L 94.648438 30.179688 C 94.425781 30.339844 93.992188 30.640625 93.351562 30.640625 C 92.714844 30.640625 92.203125 30.308594 92.203125 29.558594 C 92.203125 29.238281 92.265625 28.921875 92.410156 28.332031 L 92.585938 27.550781 L 92.777344 26.59375 L 92.824219 26.546875 L 93.304688 26.515625 L 93.335938 26.5625 C 93.175781 27.214844 93.019531 27.773438 92.875 28.457031 C 92.84375 28.632812 92.714844 29.175781 92.714844 29.460938 C 92.714844 29.941406 93.035156 30.195312 93.464844 30.195312 C 94.089844 30.195312 94.457031 29.878906 94.761719 29.621094 L 95.03125 28.410156 C 95.222656 27.519531 95.269531 27.3125 95.398438 26.578125 L 95.464844 26.53125 L 95.925781 26.5 L 95.957031 26.546875 L 95.527344 28.347656 Z M 95.304688 29.304688 "/>
<path style=" stroke:none;fill-rule:nonzero;fill:rgb(0%,34.509277%,48.629761%);fill-opacity:1;" d="M 96.679688 30.003906 C 97.046875 28.425781 97.125 28.042969 97.382812 26.640625 L 97.429688 26.59375 L 97.910156 26.515625 L 97.941406 26.5625 L 97.875 26.863281 C 98.117188 26.722656 98.484375 26.480469 98.996094 26.480469 C 99.859375 26.480469 100.433594 27.152344 100.433594 28.074219 C 100.433594 28.410156 100.371094 28.699219 100.289062 28.90625 C 100.210938 29.113281 99.988281 29.765625 99.1875 30.210938 C 98.597656 30.546875 97.988281 30.578125 97.589844 30.578125 C 97.414062 30.578125 97.222656 30.5625 97.046875 30.5625 C 96.871094 31.265625 96.839844 31.457031 96.660156 32.363281 L 96.613281 32.394531 L 96.132812 32.394531 L 96.085938 32.347656 Z M 97.125 30.164062 C 97.316406 30.179688 97.429688 30.195312 97.589844 30.195312 C 97.71875 30.195312 97.859375 30.179688 98.003906 30.164062 C 98.339844 30.117188 98.691406 30.019531 98.996094 29.828125 C 99.285156 29.652344 99.9375 29.097656 99.9375 28.125 C 99.9375 27.867188 99.90625 27.613281 99.730469 27.390625 C 99.460938 27.023438 99.125 26.960938 98.867188 26.960938 C 98.628906 26.960938 98.339844 27.023438 98.070312 27.199219 C 97.910156 27.296875 97.84375 27.375 97.75 27.46875 Z M 97.125 30.164062 "/>
<path style=" stroke:none;fill-rule:nonzero;fill:rgb(0%,34.509277%,48.629761%);fill-opacity:1;" d="M 101.328125 30.003906 C 101.695312 28.425781 101.777344 28.042969 102.03125 26.640625 L 102.082031 26.59375 L 102.558594 26.515625 L 102.59375 26.5625 L 102.527344 26.863281 C 102.769531 26.722656 103.136719 26.480469 103.648438 26.480469 C 104.511719 26.480469 105.085938 27.152344 105.085938 28.074219 C 105.085938 28.410156 105.023438 28.699219 104.941406 28.90625 C 104.863281 29.113281 104.636719 29.765625 103.839844 30.210938 C 103.246094 30.546875 102.640625 30.578125 102.242188 30.578125 C 102.066406 30.578125 101.871094 30.5625 101.695312 30.5625 C 101.519531 31.265625 101.488281 31.457031 101.3125 32.363281 L 101.265625 32.394531 L 100.785156 32.394531 L 100.753906 32.347656 Z M 101.777344 30.164062 C 101.96875 30.179688 102.082031 30.195312 102.242188 30.195312 C 102.367188 30.195312 102.511719 30.179688 102.65625 30.164062 C 102.992188 30.117188 103.34375 30.019531 103.648438 29.828125 C 103.933594 29.652344 104.589844 29.097656 104.589844 28.125 C 104.589844 27.867188 104.558594 27.613281 104.382812 27.390625 C 104.109375 27.023438 103.773438 26.960938 103.519531 26.960938 C 103.28125 26.960938 102.992188 27.023438 102.71875 27.199219 C 102.558594 27.296875 102.496094 27.375 102.402344 27.46875 Z M 101.777344 30.164062 "/>
<path style=" stroke:none;fill-rule:nonzero;fill:rgb(0%,34.509277%,48.629761%);fill-opacity:1;" d="M 107.546875 30.675781 C 106.539062 30.675781 106.011719 30.117188 106.011719 29.144531 C 106.011719 28.21875 106.476562 26.480469 108.234375 26.480469 C 109.320312 26.480469 109.753906 27.183594 109.753906 28.011719 C 109.753906 28.285156 109.707031 28.554688 109.625 28.839844 C 109.53125 29.207031 109.113281 30.675781 107.546875 30.675781 Z M 109.242188 27.964844 C 109.242188 27.121094 108.683594 26.863281 108.21875 26.863281 C 106.75 26.863281 106.507812 28.746094 106.507812 29.160156 C 106.507812 29.8125 106.875 30.277344 107.5625 30.277344 C 107.835938 30.277344 108.105469 30.242188 108.394531 30.003906 C 108.90625 29.589844 109.082031 28.890625 109.144531 28.617188 C 109.210938 28.410156 109.242188 28.1875 109.242188 27.964844 Z M 109.242188 27.964844 "/>
<path style=" stroke:none;fill-rule:nonzero;fill:rgb(0%,34.509277%,48.629761%);fill-opacity:1;" d="M 116.433594 30.53125 L 116.386719 30.5625 L 114.898438 30.5625 L 113.332031 30.59375 L 113.300781 30.546875 L 113.683594 28.96875 L 113.957031 27.757812 L 114.515625 25.078125 L 114.582031 25.046875 L 116.484375 25.046875 L 117.601562 25.03125 L 117.648438 25.078125 L 117.539062 25.445312 L 117.472656 25.492188 L 114.996094 25.460938 L 114.546875 27.488281 L 115.875 27.488281 L 116.976562 27.46875 L 117.011719 27.519531 L 116.914062 27.851562 L 116.851562 27.902344 L 115.859375 27.886719 L 114.46875 27.902344 L 114.277344 28.761719 L 113.972656 30.164062 L 115.058594 30.164062 L 116.5625 30.132812 L 116.59375 30.179688 Z M 116.433594 30.53125 "/>
<path style=" stroke:none;fill-rule:nonzero;fill:rgb(0%,34.509277%,48.629761%);fill-opacity:1;" d="M 121.535156 27.535156 C 121.183594 29.0625 121.085938 29.527344 120.910156 30.53125 L 120.847656 30.5625 L 120.414062 30.578125 L 120.382812 30.53125 L 120.445312 30.242188 C 120.128906 30.449219 119.824219 30.640625 119.28125 30.640625 C 118.386719 30.640625 117.824219 30.050781 117.824219 29.097656 C 117.824219 28.617188 117.984375 27.949219 118.449219 27.40625 C 119.070312 26.640625 119.933594 26.515625 120.6875 26.515625 C 120.894531 26.515625 121.054688 26.53125 121.261719 26.546875 L 121.46875 25.636719 C 121.582031 25.078125 121.613281 24.9375 121.675781 24.488281 L 121.726562 24.441406 L 122.238281 24.363281 L 122.269531 24.410156 L 121.886719 26.003906 Z M 121.183594 26.945312 C 121.023438 26.929688 120.894531 26.914062 120.734375 26.914062 C 120.144531 26.914062 119.488281 27.039062 119.007812 27.488281 C 118.527344 27.917969 118.351562 28.617188 118.351562 29.046875 C 118.351562 29.636719 118.65625 30.210938 119.390625 30.210938 C 119.726562 30.210938 120.0625 30.085938 120.253906 29.972656 C 120.367188 29.910156 120.480469 29.8125 120.574219 29.71875 Z M 121.183594 26.945312 "/>
<path style=" stroke:none;fill-rule:nonzero;fill:rgb(0%,34.509277%,48.629761%);fill-opacity:1;" d="M 122.910156 30.53125 L 122.859375 30.578125 L 122.398438 30.59375 L 122.347656 30.546875 C 122.558594 29.703125 122.636719 29.351562 122.828125 28.472656 L 122.941406 27.917969 C 123.066406 27.34375 123.101562 27.183594 123.179688 26.65625 L 123.226562 26.609375 L 123.707031 26.546875 L 123.753906 26.59375 C 123.5625 27.3125 123.515625 27.503906 123.292969 28.523438 L 123.085938 29.480469 Z M 124.089844 25.175781 L 124.027344 25.238281 L 123.53125 25.285156 L 123.484375 25.222656 L 123.597656 24.746094 L 123.660156 24.679688 L 124.140625 24.617188 L 124.203125 24.664062 Z M 124.089844 25.175781 "/>
<path style=" stroke:none;fill-rule:nonzero;fill:rgb(0%,34.509277%,48.629761%);fill-opacity:1;" d="M 125.945312 30.484375 L 125.898438 30.546875 C 125.738281 30.578125 125.59375 30.609375 125.417969 30.609375 C 124.9375 30.609375 124.652344 30.386719 124.652344 29.988281 C 124.652344 29.925781 124.652344 29.859375 124.667969 29.78125 C 124.699219 29.445312 124.96875 28.425781 125.066406 28.011719 L 125.304688 26.945312 L 124.667969 26.960938 L 124.632812 26.914062 L 124.714844 26.59375 L 124.777344 26.5625 L 125.386719 26.578125 L 125.578125 25.621094 L 125.625 25.574219 L 126.105469 25.460938 L 126.136719 25.511719 L 125.992188 26.035156 L 125.867188 26.5625 L 126.761719 26.546875 L 126.792969 26.59375 L 126.695312 26.929688 L 126.648438 26.976562 L 125.785156 26.960938 L 125.304688 29.015625 C 125.257812 29.207031 125.144531 29.6875 125.144531 29.84375 C 125.144531 30.117188 125.304688 30.210938 125.53125 30.210938 C 125.691406 30.210938 125.867188 30.164062 126.007812 30.101562 L 126.042969 30.132812 Z M 125.945312 30.484375 "/>
<path style=" stroke:none;fill-rule:nonzero;fill:rgb(0%,34.509277%,48.629761%);fill-opacity:1;" d="M 128.582031 30.675781 C 127.574219 30.675781 127.046875 30.117188 127.046875 29.144531 C 127.046875 28.21875 127.511719 26.480469 129.269531 26.480469 C 130.355469 26.480469 130.789062 27.183594 130.789062 28.011719 C 130.789062 28.285156 130.742188 28.554688 130.660156 28.839844 C 130.566406 29.207031 130.148438 30.675781 128.582031 30.675781 Z M 130.277344 27.964844 C 130.277344 27.121094 129.71875 26.863281 129.253906 26.863281 C 127.785156 26.863281 127.542969 28.746094 127.542969 29.160156 C 127.542969 29.8125 127.910156 30.277344 128.597656 30.277344 C 128.871094 30.277344 129.140625 30.242188 129.429688 30.003906 C 129.941406 29.589844 130.117188 28.890625 130.179688 28.617188 C 130.230469 28.410156 130.277344 28.1875 130.277344 27.964844 Z M 130.277344 27.964844 "/>
<path style=" stroke:none;fill-rule:nonzero;fill:rgb(0%,34.509277%,48.629761%);fill-opacity:1;" d="M 132.097656 30.515625 L 132.050781 30.5625 L 131.585938 30.578125 L 131.554688 30.53125 L 131.84375 29.382812 L 132.019531 28.601562 C 132.066406 28.378906 132.117188 28.15625 132.164062 27.933594 C 132.308594 27.277344 132.308594 27.230469 132.402344 26.640625 L 132.449219 26.59375 L 132.929688 26.515625 L 132.960938 26.5625 L 132.820312 27.121094 C 133.042969 26.816406 133.296875 26.449219 133.824219 26.449219 C 134.015625 26.449219 134.082031 26.480469 134.175781 26.53125 L 134.191406 26.59375 L 134.050781 27.007812 L 133.96875 27.023438 C 133.875 26.976562 133.792969 26.945312 133.664062 26.945312 C 133.585938 26.945312 133.203125 26.945312 132.898438 27.421875 C 132.660156 27.757812 132.515625 28.394531 132.402344 28.953125 L 132.242188 29.71875 Z M 132.097656 30.515625 "/>
<path style=" stroke:none;fill-rule:nonzero;fill:rgb(0%,34.509277%,48.629761%);fill-opacity:1;" d="M 134.960938 30.53125 L 134.914062 30.578125 L 134.449219 30.59375 L 134.402344 30.546875 C 134.609375 29.703125 134.6875 29.351562 134.878906 28.472656 L 134.992188 27.917969 C 135.121094 27.34375 135.152344 27.183594 135.230469 26.65625 L 135.28125 26.609375 L 135.761719 26.546875 L 135.808594 26.59375 C 135.617188 27.3125 135.566406 27.503906 135.34375 28.523438 L 135.136719 29.480469 Z M 136.160156 25.175781 L 136.09375 25.238281 L 135.601562 25.285156 L 135.550781 25.222656 L 135.664062 24.746094 L 135.726562 24.679688 L 136.207031 24.617188 L 136.269531 24.664062 Z M 136.160156 25.175781 "/>
<path style=" stroke:none;fill-rule:nonzero;fill:rgb(0%,34.509277%,48.629761%);fill-opacity:1;" d="M 140.089844 28.15625 C 139.820312 29.351562 139.773438 29.589844 139.628906 30.515625 L 139.578125 30.5625 L 139.148438 30.5625 L 139.117188 30.515625 L 139.164062 30.226562 C 138.972656 30.355469 138.621094 30.625 138.011719 30.625 C 137.199219 30.625 136.558594 30.085938 136.558594 29.097656 C 136.558594 28.472656 136.863281 27.488281 137.679688 26.960938 C 138.347656 26.53125 139.050781 26.53125 139.515625 26.53125 L 140.410156 26.546875 L 140.441406 26.59375 Z M 139.882812 26.960938 C 139.757812 26.960938 139.613281 26.945312 139.46875 26.945312 C 138.699219 26.945312 137.996094 27.152344 137.535156 27.757812 C 137.246094 28.125 137.070312 28.683594 137.070312 29.097656 C 137.070312 29.703125 137.40625 30.226562 138.109375 30.226562 C 138.84375 30.226562 139.277344 29.75 139.292969 29.734375 Z M 139.882812 26.960938 "/>
<path style=" stroke:none;fill-rule:nonzero;fill:rgb(0%,34.509277%,48.629761%);fill-opacity:1;" d="M 142.25 27.597656 C 141.929688 29.046875 141.867188 29.398438 141.65625 30.515625 L 141.59375 30.5625 L 141.148438 30.578125 L 141.113281 30.546875 L 141.449219 29.046875 L 141.898438 27.070312 C 142.183594 25.8125 142.25 25.492188 142.394531 24.472656 L 142.441406 24.425781 C 142.648438 24.410156 142.714844 24.394531 142.9375 24.347656 L 142.984375 24.394531 L 142.570312 26.195312 Z M 142.25 27.597656 "/>
<path style=" stroke:none;fill-rule:nonzero;fill:rgb(0%,34.509277%,48.629761%);fill-opacity:1;" d="M 146.230469 30.277344 L 146.199219 30.324219 C 145.878906 30.5 145.574219 30.660156 144.949219 30.660156 C 143.832031 30.660156 143.257812 30.003906 143.257812 29.03125 C 143.257812 27.933594 143.910156 26.464844 145.460938 26.464844 C 146.148438 26.464844 146.886719 26.769531 146.886719 27.835938 C 146.886719 28.09375 146.851562 28.285156 146.789062 28.507812 L 146.742188 28.539062 C 146.199219 28.539062 145.652344 28.523438 145.109375 28.523438 C 144.648438 28.523438 144.246094 28.523438 143.785156 28.539062 C 143.769531 28.714844 143.734375 28.855469 143.734375 29.03125 C 143.734375 29.8125 144.214844 30.242188 145.03125 30.242188 C 145.636719 30.242188 145.988281 29.988281 146.324219 29.734375 L 146.390625 29.765625 Z M 146.375 28.140625 C 146.390625 28.011719 146.421875 27.886719 146.421875 27.742188 C 146.421875 27.390625 146.246094 26.847656 145.445312 26.847656 C 145.109375 26.847656 144.664062 26.945312 144.28125 27.421875 C 144.085938 27.660156 144.007812 27.867188 143.910156 28.125 L 146.375 28.125 Z M 146.375 28.140625 "/>
<path style=" stroke:none;fill-rule:nonzero;fill:rgb(0%,34.509277%,48.629761%);fill-opacity:1;" d="M 44.503906 51.347656 L 44.25 51.09375 L 44.25 38.5625 L 44.503906 38.308594 L 48.980469 38.308594 L 49.238281 38.5625 L 49.238281 51.09375 L 48.980469 51.347656 Z M 44.503906 51.347656 "/>
<path style=" stroke:none;fill-rule:nonzero;fill:rgb(0%,34.509277%,48.629761%);fill-opacity:1;" d="M 39.214844 51.074219 C 38.320312 51.585938 37.34375 51.984375 36.320312 52.238281 C 35.394531 52.480469 34.433594 52.589844 33.429688 52.589844 C 26.96875 52.589844 21.726562 47.363281 21.726562 40.921875 C 21.726562 34.484375 26.96875 29.253906 33.429688 29.253906 C 34.625 29.253906 35.777344 29.429688 36.878906 29.765625 C 37.695312 30.019531 38.464844 30.355469 39.199219 30.769531 L 39.46875 30.753906 C 40.476562 28.90625 40.765625 28.410156 41.882812 26.546875 L 41.820312 26.324219 C 40.828125 25.765625 39.789062 25.285156 38.6875 24.9375 C 37.023438 24.394531 35.265625 24.089844 33.429688 24.089844 C 24.109375 24.089844 16.546875 31.628906 16.546875 40.921875 C 16.546875 50.214844 24.109375 57.753906 33.429688 57.753906 C 35.21875 57.753906 36.960938 57.46875 38.574219 56.957031 C 39.710938 56.589844 40.796875 56.113281 41.804688 55.539062 L 41.867188 55.316406 C 40.75 53.433594 40.476562 52.957031 39.453125 51.109375 Z M 39.214844 51.074219 "/>
<path style=" stroke:none;fill-rule:nonzero;fill:rgb(0%,34.509277%,48.629761%);fill-opacity:1;" d="M 44.25 35.597656 L 44.503906 35.855469 L 48.980469 35.855469 L 49.21875 35.597656 L 49.21875 31.644531 L 48.980469 31.390625 L 44.503906 31.390625 L 44.25 31.644531 Z M 44.25 35.597656 "/>
<path style=" stroke:none;fill-rule:nonzero;fill:rgb(0%,34.509277%,48.629761%);fill-opacity:1;" d="M 108.457031 46.707031 L 107.210938 50.199219 L 106.972656 50.453125 C 106.171875 50.835938 104.527344 51.570312 101.554688 51.570312 C 97.316406 51.570312 96.199219 49.976562 95.75 49.324219 C 94.824219 47.96875 94.777344 46.484375 95 44.890625 C 95.625 40.492188 99.125 35.007812 105.40625 35.007812 C 106.78125 35.007812 108.15625 35.28125 109.066406 35.871094 C 111.078125 37.128906 110.921875 39.34375 110.746094 40.574219 C 110.550781 41.976562 110.152344 43.011719 109.769531 44 L 109.511719 44.253906 L 99.972656 44.253906 C 99.890625 44.589844 99.8125 44.972656 99.761719 45.304688 C 99.507812 47.074219 100.578125 48.09375 103.007812 48.09375 C 104.78125 48.09375 106.621094 47.457031 108.203125 46.46875 Z M 106.253906 41.304688 C 106.414062 40.859375 106.554688 40.414062 106.621094 39.949219 C 106.765625 38.960938 106.300781 37.972656 104.863281 37.972656 C 104.351562 37.972656 103.550781 38.101562 102.59375 38.898438 C 101.648438 39.679688 101.21875 40.605469 100.867188 41.351562 Z M 106.253906 41.304688 "/>
<path style=" stroke:none;fill-rule:nonzero;fill:rgb(0%,34.509277%,48.629761%);fill-opacity:1;" d="M 117.601562 35.359375 L 117.855469 35.617188 L 116.355469 46.167969 L 120.015625 39.964844 L 122.460938 35.617188 L 122.714844 35.359375 L 127.894531 35.359375 L 128.152344 35.617188 L 126.441406 46.375 L 132.644531 35.617188 L 132.898438 35.359375 L 136.589844 35.359375 L 136.847656 35.617188 L 127.335938 51.109375 L 127.082031 51.363281 L 122.027344 51.363281 L 121.773438 51.109375 L 123.242188 40.382812 L 116.976562 51.109375 L 116.722656 51.363281 L 111.816406 51.363281 L 111.558594 51.109375 L 112.804688 35.597656 L 113.046875 35.359375 Z M 117.601562 35.359375 "/>
<path style=" stroke:none;fill-rule:nonzero;fill:rgb(0%,34.509277%,48.629761%);fill-opacity:1;" d="M 77.65625 35.359375 L 73.515625 35.359375 L 73.261719 35.597656 L 70.191406 44.109375 L 67.875 35.597656 L 67.617188 35.359375 L 62.359375 35.359375 L 62.105469 35.597656 L 67.808594 50.742188 L 65.027344 58.457031 L 65.171875 58.695312 L 69.570312 58.664062 L 69.792969 58.472656 L 77.898438 35.597656 Z M 77.65625 35.359375 "/>
<path style=" stroke:none;fill-rule:nonzero;fill:rgb(0%,34.509277%,48.629761%);fill-opacity:1;" d="M 91.5 34.976562 C 89.375 34.976562 87.824219 35.933594 86.671875 36.683594 L 87.054688 35.597656 L 86.800781 35.34375 L 82.117188 35.34375 L 81.859375 35.597656 L 76.25 51.09375 L 76.507812 51.347656 L 81.222656 51.347656 L 81.476562 51.09375 L 85.570312 39.710938 C 86.382812 39.21875 87.167969 38.804688 88.0625 38.804688 C 88.910156 38.804688 89.597656 39.410156 89.453125 40.476562 C 89.355469 41.128906 88.957031 42.324219 88.75 42.929688 L 87.648438 46.007812 L 85.730469 51.074219 L 85.984375 51.332031 L 90.730469 51.332031 L 90.988281 51.074219 L 92.296875 47.234375 L 92.984375 45.164062 C 93.800781 43.042969 94.824219 40.222656 95.015625 38.867188 C 95.429688 35.886719 93.371094 34.976562 91.5 34.976562 Z M 91.5 34.976562 "/>
<path style=" stroke:none;fill-rule:nonzero;fill:rgb(0%,34.509277%,48.629761%);fill-opacity:1;" d="M 57.851562 51.585938 C 53.167969 51.585938 53.105469 48.621094 53.105469 45.863281 C 53.105469 45.082031 53.105469 38.820312 53.105469 38.820312 L 51.683594 38.820312 L 51.425781 38.5625 L 51.425781 35.582031 L 51.683594 35.328125 L 53.105469 35.328125 L 53.105469 31.375 L 53.359375 31.121094 L 57.789062 31.121094 L 58.042969 31.375 L 58.042969 35.328125 L 60.855469 35.328125 L 61.113281 35.582031 L 61.113281 38.5625 L 60.855469 38.820312 L 58.042969 38.820312 L 58.027344 42.691406 C 57.996094 43.886719 58.042969 45.53125 58.09375 46.308594 C 58.125 46.835938 58.074219 48.03125 59.5625 48.03125 C 61.050781 48.03125 61.242188 47.761719 61.242188 47.761719 L 61.480469 48.015625 L 61.480469 50.886719 L 61.226562 51.140625 C 61.242188 51.15625 59.640625 51.585938 57.851562 51.585938 Z M 57.851562 51.585938 "/>
<path style=" stroke:none;fill-rule:nonzero;fill:rgb(0%,34.509277%,48.629761%);fill-opacity:1;" d="M 132.449219 49.832031 L 133.699219 46.933594 L 133.984375 46.835938 C 134.59375 47.265625 136.621094 48.222656 138.03125 48.222656 C 140.347656 48.222656 140.792969 46.898438 140.859375 46.484375 C 141.003906 45.464844 140.074219 44.988281 139.101562 44.507812 L 138.492188 44.175781 C 137.023438 43.363281 135.617188 42.691406 135.953125 40.332031 C 136.0625 39.585938 136.972656 34.945312 143.574219 34.945312 C 145.253906 34.945312 146.804688 35.390625 148.453125 36.253906 L 148.53125 36.523438 C 147.828125 38.085938 147.90625 37.78125 147.378906 39.152344 L 147.140625 39.25 C 146.835938 39.074219 144.839844 38.179688 143.304688 38.179688 C 141.691406 38.199219 140.875 38.996094 140.777344 39.710938 C 140.652344 40.605469 141.753906 40.988281 142.488281 41.351562 L 143.128906 41.6875 C 144.328125 42.339844 146.46875 43.265625 146.085938 45.929688 C 145.878906 47.363281 144.535156 51.585938 137.933594 51.585938 C 134.878906 51.585938 133.378906 50.660156 132.5 50.089844 Z M 132.449219 49.832031 "/>
</g>
</svg>
