<?xml version="1.0" encoding="UTF-8"?>
<svg xmlns="http://www.w3.org/2000/svg" xmlns:xlink="http://www.w3.org/1999/xlink" width="165pt" height="82.499998pt" viewBox="0 0 165 82.499998" version="1.2">
<defs>
<clipPath id="clip1">
  <path d="M 0.496094 0 L 164.503906 0 L 164.503906 82.003906 L 0.496094 82.003906 Z M 0.496094 0 "/>
</clipPath>
</defs>
<g id="surface1">
<g clip-path="url(#clip1)" clip-rule="nonzero">
<path style=" stroke:none;fill-rule:nonzero;fill:rgb(100%,100%,100%);fill-opacity:1;" d="M 0.496094 0 L 164.503906 0 L 164.503906 89.457031 L 0.496094 89.457031 Z M 0.496094 0 "/>
<path style=" stroke:none;fill-rule:nonzero;fill:rgb(100%,100%,100%);fill-opacity:1;" d="M 0.496094 0 L 164.503906 0 L 164.503906 82.003906 L 0.496094 82.003906 Z M 0.496094 0 "/>
<path style=" stroke:none;fill-rule:nonzero;fill:rgb(100%,100%,100%);fill-opacity:1;" d="M 0.496094 0 L 164.503906 0 L 164.503906 82.003906 L 0.496094 82.003906 Z M 0.496094 0 "/>
</g>
<path style=" stroke:none;fill-rule:nonzero;fill:rgb(3.919983%,6.669617%,12.939453%);fill-opacity:1;" d="M 84.878906 34.976562 L 90.023438 34.976562 L 93.929688 45.546875 L 93.992188 45.546875 L 97.613281 34.976562 L 102.40625 34.976562 L 96.308594 50.515625 L 91.261719 50.515625 Z M 84.878906 34.976562 "/>
<path style=" stroke:none;fill-rule:nonzero;fill:rgb(3.919983%,6.669617%,12.939453%);fill-opacity:1;" d="M 66.222656 38.796875 L 61.523438 38.796875 L 61.523438 44 C 61.523438 44.421875 61.574219 44.8125 61.621094 45.160156 C 61.667969 45.511719 61.789062 45.8125 61.949219 46.070312 C 62.113281 46.324219 62.371094 46.519531 62.707031 46.65625 C 63.046875 46.796875 63.5 46.863281 64.058594 46.863281 C 64.335938 46.863281 64.71875 46.839844 65.175781 46.785156 C 65.628906 46.730469 65.96875 46.609375 66.222656 46.417969 L 66.222656 50.398438 C 65.585938 50.589844 65.019531 50.71875 64.390625 50.78125 C 63.761719 50.84375 63.136719 50.878906 62.53125 50.878906 C 61.644531 50.878906 60.828125 50.792969 60.082031 50.621094 C 59.335938 50.453125 58.683594 50.183594 58.125 49.8125 C 57.566406 49.4375 57.117188 48.957031 56.800781 48.363281 C 56.488281 47.765625 56.316406 47.046875 56.316406 46.195312 L 56.316406 38.796875 L 53.015625 38.796875 L 53.015625 34.976562 L 56.316406 34.976562 L 56.316406 30.390625 L 61.523438 30.390625 L 61.523438 34.976562 L 66.222656 34.976562 Z M 66.222656 38.796875 "/>
<path style=" stroke:none;fill-rule:nonzero;fill:rgb(3.919983%,6.669617%,12.939453%);fill-opacity:1;" d="M 67.492188 34.976562 L 72.316406 34.976562 L 72.316406 37.523438 L 72.363281 37.523438 C 72.871094 36.503906 73.476562 35.839844 74.175781 35.363281 C 74.871094 34.886719 75.75 34.640625 76.808594 34.640625 C 77.085938 34.640625 77.367188 34.648438 77.640625 34.667969 C 77.917969 34.691406 78.160156 34.730469 78.414062 34.792969 L 78.414062 39.15625 C 78.03125 39.050781 77.730469 38.972656 77.40625 38.917969 C 77.078125 38.867188 76.730469 38.839844 76.371094 38.839844 C 75.457031 38.839844 74.738281 38.96875 74.207031 39.222656 C 73.679688 39.476562 73.269531 39.832031 72.984375 40.289062 C 72.699219 40.746094 72.519531 41.292969 72.4375 41.929688 C 72.351562 42.566406 72.316406 43.265625 72.316406 44.03125 L 72.316406 50.515625 L 67.492188 50.515625 Z M 67.492188 34.976562 "/>
<path style=" stroke:none;fill-rule:nonzero;fill:rgb(3.919983%,6.669617%,12.939453%);fill-opacity:1;" d="M 79.554688 34.976562 L 84.253906 34.976562 L 84.253906 50.515625 L 79.554688 50.515625 Z M 79.363281 30.890625 C 79.363281 30.1875 79.609375 29.589844 80.105469 29.09375 C 80.601562 28.597656 81.195312 28.351562 81.894531 28.351562 C 82.59375 28.351562 83.1875 28.597656 83.683594 29.09375 C 84.175781 29.589844 84.425781 30.1875 84.425781 30.890625 C 84.425781 31.589844 84.175781 32.1875 83.683594 32.683594 C 83.1875 33.179688 82.59375 33.425781 81.894531 33.425781 C 81.195312 33.425781 80.601562 33.179688 80.105469 32.683594 C 79.609375 32.1875 79.363281 31.589844 79.363281 30.890625 "/>
<path style=" stroke:none;fill-rule:nonzero;fill:rgb(3.919983%,6.669617%,12.939453%);fill-opacity:1;" d="M 110.488281 43.765625 C 110.128906 43.765625 109.675781 43.753906 109.136719 43.785156 C 108.597656 43.820312 108.078125 43.894531 107.582031 44.042969 C 107.085938 44.191406 106.660156 44.410156 106.3125 44.707031 C 105.960938 45.003906 105.789062 45.414062 105.789062 45.945312 C 105.789062 46.519531 106.03125 46.941406 106.519531 47.21875 C 107.003906 47.492188 107.511719 47.628906 108.042969 47.628906 C 108.507812 47.628906 108.957031 47.566406 109.390625 47.4375 C 109.824219 47.3125 110.210938 47.128906 110.550781 46.898438 C 110.890625 46.664062 111.171875 46.367188 111.371094 46.003906 C 111.574219 45.644531 111.683594 45.21875 111.683594 44.730469 L 111.683594 43.765625 Z M 111.683594 48.605469 L 111.597656 48.605469 C 111.070312 49.367188 110.363281 50 109.488281 50.359375 C 108.609375 50.722656 107.683594 50.890625 106.707031 50.890625 C 105.988281 50.890625 105.296875 50.785156 104.628906 50.582031 C 103.960938 50.378906 103.375 50.074219 102.867188 49.671875 C 102.359375 49.265625 101.957031 48.765625 101.660156 48.171875 C 101.363281 47.578125 101.214844 46.886719 101.214844 46.101562 C 101.214844 45.210938 101.378906 44.457031 101.707031 43.839844 C 102.035156 43.222656 102.480469 42.714844 103.039062 42.3125 C 103.601562 41.90625 104.242188 41.59375 104.960938 41.371094 C 105.679688 41.148438 106.425781 40.984375 107.199219 40.878906 C 107.972656 40.773438 108.746094 40.707031 109.519531 40.6875 C 110.289062 40.664062 111.003906 40.652344 111.660156 40.652344 C 111.660156 39.804688 111.359375 39.132812 110.757812 38.632812 C 110.152344 38.132812 109.4375 37.882812 108.613281 37.882812 C 107.828125 37.882812 107.117188 38.050781 106.46875 38.378906 C 105.824219 38.707031 105.246094 39.160156 104.738281 39.730469 L 102.199219 37.121094 C 103.085938 36.292969 104.125 35.671875 105.3125 35.257812 C 106.496094 34.84375 107.722656 34.636719 108.996094 34.636719 C 110.390625 34.636719 111.539062 34.8125 112.441406 35.160156 C 113.339844 35.511719 114.058594 36.027344 114.597656 36.707031 C 115.136719 37.386719 115.492188 38.21875 115.703125 39.207031 C 115.917969 40.195312 116 41.335938 116 42.628906 L 116 50.515625 L 111.683594 50.515625 Z M 111.683594 48.605469 "/>
<path style=" stroke:none;fill-rule:nonzero;fill:rgb(3.919983%,6.669617%,12.939453%);fill-opacity:1;" d="M 138.214844 42.757812 C 138.214844 43.925781 138.515625 44.871094 139.121094 45.589844 C 139.722656 46.3125 140.570312 46.671875 141.664062 46.671875 C 142.753906 46.671875 143.601562 46.3125 144.203125 45.589844 C 144.808594 44.871094 145.109375 43.925781 145.109375 42.757812 C 145.109375 41.589844 144.808594 40.644531 144.203125 39.921875 C 143.601562 39.203125 142.753906 38.839844 141.664062 38.839844 C 140.570312 38.839844 139.722656 39.199219 139.121094 39.921875 C 138.515625 40.644531 138.214844 41.589844 138.214844 42.757812 M 133.90625 42.757812 C 133.90625 41.527344 134.105469 40.410156 134.507812 39.414062 C 134.910156 38.414062 135.460938 37.5625 136.160156 36.851562 C 136.859375 36.136719 137.683594 35.59375 138.632812 35.210938 C 139.578125 34.828125 140.589844 34.636719 141.664062 34.636719 C 142.734375 34.636719 143.746094 34.828125 144.691406 35.210938 C 145.640625 35.59375 146.464844 36.136719 147.164062 36.851562 C 147.863281 37.5625 148.414062 38.414062 148.816406 39.414062 C 149.21875 40.410156 149.417969 41.527344 149.417969 42.757812 C 149.417969 43.988281 149.21875 45.101562 148.816406 46.101562 C 148.414062 47.097656 147.863281 47.953125 147.164062 48.664062 C 146.464844 49.375 145.640625 49.921875 144.691406 50.304688 C 143.746094 50.6875 142.734375 50.878906 141.664062 50.878906 C 140.589844 50.878906 139.578125 50.6875 138.632812 50.304688 C 137.683594 49.921875 136.859375 49.375 136.160156 48.664062 C 135.460938 47.953125 134.910156 47.097656 134.507812 46.101562 C 134.105469 45.101562 133.90625 43.988281 133.90625 42.757812 "/>
<path style=" stroke:none;fill-rule:nonzero;fill:rgb(3.919983%,6.669617%,12.939453%);fill-opacity:1;" d="M 128.871094 34.960938 L 128.871094 37.042969 L 128.796875 37.042969 C 128.714844 36.929688 128.597656 36.757812 128.257812 36.460938 C 127.808594 36.074219 127.480469 35.890625 127.035156 35.644531 C 126.59375 35.402344 126.074219 35.191406 125.511719 35.039062 C 124.945312 34.890625 124.222656 34.769531 123.542969 34.769531 C 122.4375 34.769531 121.429688 35.070312 120.558594 35.527344 C 119.6875 35.988281 119.050781 36.453125 118.46875 37.226562 C 117.894531 37.988281 117.558594 38.753906 117.289062 39.753906 C 117.023438 40.75 116.957031 41.894531 116.957031 42.917969 C 116.957031 44.089844 117.132812 45.199219 117.417969 46.203125 C 117.703125 47.214844 118.164062 48.125 118.765625 48.8125 C 119.414062 49.558594 120.082031 49.945312 121.015625 50.339844 C 121.953125 50.734375 122.945312 50.878906 124.09375 50.867188 C 124.820312 50.859375 125.527344 50.695312 126.339844 50.382812 C 127.335938 49.996094 128.03125 49.28125 128.304688 48.890625 L 128.359375 48.890625 L 128.359375 50.398438 C 128.359375 51.503906 128.117188 52.414062 127.429688 53.128906 C 126.738281 53.84375 125.730469 54.226562 124.265625 54.226562 C 123.289062 54.226562 122.675781 54.246094 121.683594 53.976562 C 120.820312 53.742188 119.734375 53.328125 118.925781 52.738281 L 116.609375 56.148438 C 117.84375 57.046875 118.960938 57.597656 120.300781 57.953125 C 121.628906 58.304688 122.988281 58.417969 124.367188 58.417969 C 127.386719 58.417969 129.519531 57.65625 130.996094 56.132812 C 132.472656 54.609375 133.074219 52.378906 133.074219 49.4375 L 133.074219 34.960938 Z M 127.679688 45.613281 C 127.078125 46.335938 126.226562 46.699219 125.132812 46.699219 C 124.035156 46.699219 123.1875 46.335938 122.578125 45.613281 C 121.976562 44.886719 121.671875 43.9375 121.671875 42.769531 C 121.671875 41.597656 121.976562 40.648438 122.578125 39.925781 C 123.1875 39.199219 124.035156 38.835938 125.132812 38.835938 C 126.226562 38.835938 127.078125 39.199219 127.679688 39.925781 C 128.289062 40.648438 128.589844 41.597656 128.589844 42.769531 C 128.589844 43.9375 128.289062 44.886719 127.679688 45.613281 Z M 127.679688 45.613281 "/>
<path style=" stroke:none;fill-rule:nonzero;fill:rgb(89.019775%,25.099182%,23.919678%);fill-opacity:1;" d="M 24.167969 53.328125 C 10.460938 46.449219 12.511719 33.972656 16.074219 28.484375 C 15.113281 29.414062 14.207031 30.496094 13.40625 31.757812 L 13.40625 31.761719 C 12.375 33.382812 10.050781 37.777344 11.367188 43.375 C 12.679688 48.945312 16.570312 52.703125 19.675781 54.753906 C 24.675781 58.050781 29.53125 58.789062 32.953125 58.570312 C 38.058594 58.242188 41.441406 55.25 43.105469 52.601562 C 44.101562 51.011719 44.582031 49.496094 44.753906 48.878906 C 44.273438 49.625 37.742188 60.136719 24.167969 53.328125 Z M 24.167969 53.328125 "/>
<path style=" stroke:none;fill-rule:nonzero;fill:rgb(98.81897%,61.959839%,8.239746%);fill-opacity:1;" d="M 33.46875 53.039062 C 33.234375 53.066406 32.988281 53.085938 32.734375 53.09375 C 29.863281 53.136719 26.78125 52.152344 24.625 51.023438 C 22.992188 50.167969 20.84375 48.726562 19.21875 46.558594 C 10.976562 36.058594 21.605469 25.261719 24.519531 23.996094 C 23.941406 24.097656 23.285156 24.242188 22.589844 24.457031 C 20.816406 25.003906 18.324219 26.304688 16.074219 28.484375 C 15.722656 28.933594 15.378906 29.410156 15.0625 29.914062 L 15.058594 29.917969 C 14.058594 31.5 11.792969 35.78125 13.074219 41.238281 C 14.351562 46.667969 18.144531 50.332031 21.171875 52.328125 C 26.046875 55.542969 30.777344 56.261719 34.113281 56.046875 C 39.089844 55.730469 42.386719 52.8125 44.007812 50.230469 C 44.300781 49.765625 44.546875 49.308594 44.753906 48.878906 C 44.804688 48.691406 44.828125 48.585938 44.828125 48.585938 C 44.941406 48.128906 45.097656 47.296875 45.140625 47.023438 C 45.488281 44.808594 45.289062 42.640625 44.917969 40.839844 C 44.445312 44.722656 41.371094 52.34375 33.46875 53.039062 Z M 18.019531 44.605469 L 18.011719 44.589844 L 18.023438 44.609375 Z M 32.742188 53.09375 L 32.738281 53.09375 L 32.761719 53.09375 Z M 32.742188 53.09375 "/>
<path style=" stroke:none;fill-rule:nonzero;fill:rgb(7.449341%,56.858826%,82.348633%);fill-opacity:1;" d="M 42.378906 34.214844 C 42.085938 33.679688 41.609375 32.972656 41.582031 32.933594 C 41.179688 32.339844 40.753906 31.769531 40.410156 31.351562 C 39.554688 30.3125 38.023438 30.148438 36.964844 30.988281 C 35.898438 31.839844 35.726562 33.371094 36.566406 34.472656 C 37.496094 35.683594 38.066406 36.660156 38.75 38.132812 C 39.050781 38.785156 39.667969 40.335938 39.972656 42.183594 C 40.234375 43.789062 40.4375 47.097656 38.664062 49.710938 C 38.097656 50.546875 36.757812 52.425781 34.015625 52.953125 L 33.96875 52.960938 C 33.808594 52.992188 33.640625 53.019531 33.46875 53.039062 C 33.75 53.035156 34.027344 53.027344 34.289062 53.007812 C 38.679688 52.726562 41.585938 50.15625 43.015625 47.878906 C 44.136719 46.097656 44.496094 44.425781 44.496094 44.425781 C 44.59375 44.03125 44.730469 43.316406 44.765625 43.082031 C 44.886719 42.320312 44.929688 41.566406 44.917969 40.839844 C 44.75 40.007812 44.542969 39.253906 44.339844 38.605469 C 43.8125 36.949219 43.082031 35.492188 42.378906 34.214844 Z M 42.378906 34.214844 "/>
<path style=" stroke:none;fill-rule:nonzero;fill:rgb(7.449341%,56.858826%,82.348633%);fill-opacity:1;" d="M 18.023438 44.613281 C 17.644531 43.839844 17.339844 43 17.132812 42.089844 C 16.855469 40.847656 16.671875 37.636719 18.546875 34.914062 C 20.566406 31.976562 22.890625 30.101562 28.261719 30.035156 C 29.976562 30.011719 31.320312 29.117188 31.503906 27.371094 C 31.6875 25.621094 30.558594 24.132812 28.683594 23.871094 C 28.0625 23.789062 27.414062 23.753906 26.746094 23.769531 L 26.742188 23.769531 C 26.742188 23.769531 25.835938 23.761719 24.519531 23.996094 C 22.371094 24.875 19.492188 26.792969 17.484375 29.960938 L 17.484375 29.964844 L 17.484375 29.960938 C 16.601562 31.359375 14.601562 35.132812 15.734375 39.945312 C 16.367188 42.636719 17.699219 44.835938 19.21875 46.558594 C 18.773438 45.964844 18.371094 45.316406 18.023438 44.613281 Z M 18.019531 44.605469 L 18.011719 44.589844 L 18.023438 44.609375 Z M 18.019531 44.605469 "/>
</g>
</svg>
