<svg id="Livello_1" data-name="Livello 1" xmlns="http://www.w3.org/2000/svg" viewBox="0 0 40 40"><path d="M20,12.2a31.56,31.56,0,0,1,3.8.1,5.94,5.94,0,0,1,1.8.3,4.13,4.13,0,0,1,1.1.7,3,3,0,0,1,.7,1.1,4.84,4.84,0,0,1,.3,1.8c0,1,.1,1.3.1,3.8a31.56,31.56,0,0,1-.1,3.8,5.94,5.94,0,0,1-.3,1.8,4.13,4.13,0,0,1-.7,1.1,3,3,0,0,1-1.1.7,4.84,4.84,0,0,1-1.8.3c-1,0-1.3.1-3.8.1a31.56,31.56,0,0,1-3.8-.1,5.94,5.94,0,0,1-1.8-.3,4.13,4.13,0,0,1-1.1-.7,3,3,0,0,1-.7-1.1,4.84,4.84,0,0,1-.3-1.8c0-1-.1-1.3-.1-3.8a31.56,31.56,0,0,1,.1-3.8,5.94,5.94,0,0,1,.3-1.8,4.13,4.13,0,0,1,.7-1.1,3,3,0,0,1,1.1-.7,4.84,4.84,0,0,1,1.8-.3,31.56,31.56,0,0,1,3.8-.1m0-1.7a32.63,32.63,0,0,0-3.9.1,6.8,6.8,0,0,0-2.3.4A4.83,4.83,0,0,0,11,13.8a6.8,6.8,0,0,0-.4,2.3c0,1-.1,1.3-.1,3.9a32.63,32.63,0,0,0,.1,3.9,6.8,6.8,0,0,0,.4,2.3A4.83,4.83,0,0,0,13.8,29a6.8,6.8,0,0,0,2.3.4c1,0,1.3.1,3.9.1a32.63,32.63,0,0,0,3.9-.1,6.8,6.8,0,0,0,2.3-.4A4.83,4.83,0,0,0,29,26.2a6.8,6.8,0,0,0,.4-2.3c0-1,.1-1.3.1-3.9a32.63,32.63,0,0,0-.1-3.9,6.8,6.8,0,0,0-.4-2.3A4.83,4.83,0,0,0,26.2,11a6.8,6.8,0,0,0-2.3-.4,32.63,32.63,0,0,0-3.9-.1Zm0,4.6A4.9,4.9,0,1,0,24.9,20,4.91,4.91,0,0,0,20,15.1Zm0,8.1A3.2,3.2,0,1,1,23.2,20,3.29,3.29,0,0,1,20,23.2Zm5.1-9.4a1.1,1.1,0,1,0,1.1,1.1A1.11,1.11,0,0,0,25.1,13.8Z"/></svg>