<?xml version="1.0" encoding="UTF-8"?>
<svg xmlns="http://www.w3.org/2000/svg" xmlns:xlink="http://www.w3.org/1999/xlink" width="165pt" height="82.499998pt" viewBox="0 0 165 82.499998" version="1.2">
<defs>
<clipPath id="clip1">
  <path d="M 85 26 L 114 26 L 114 55 L 85 55 Z M 85 26 "/>
</clipPath>
<clipPath id="clip2">
  <path d="M 113.964844 40.4375 C 113.964844 41.371094 113.871094 42.296875 113.6875 43.210938 C 113.503906 44.128906 113.230469 45.015625 112.867188 45.878906 C 112.503906 46.742188 112.0625 47.558594 111.535156 48.335938 C 111.011719 49.113281 110.414062 49.832031 109.742188 50.492188 C 109.074219 51.152344 108.347656 51.738281 107.558594 52.257812 C 106.773438 52.777344 105.941406 53.214844 105.066406 53.574219 C 104.195312 53.929688 103.292969 54.199219 102.363281 54.382812 C 101.4375 54.5625 100.5 54.65625 99.554688 54.65625 C 98.605469 54.65625 97.667969 54.5625 96.742188 54.382812 C 95.8125 54.199219 94.914062 53.929688 94.039062 53.574219 C 93.164062 53.214844 92.332031 52.777344 91.546875 52.257812 C 90.761719 51.738281 90.03125 51.152344 89.363281 50.492188 C 88.695312 49.832031 88.097656 49.113281 87.570312 48.335938 C 87.046875 47.558594 86.601562 46.742188 86.238281 45.878906 C 85.875 45.015625 85.605469 44.128906 85.417969 43.210938 C 85.234375 42.296875 85.140625 41.371094 85.140625 40.4375 C 85.140625 39.503906 85.234375 38.582031 85.417969 37.664062 C 85.605469 36.75 85.875 35.859375 86.238281 35 C 86.601562 34.136719 87.046875 33.316406 87.570312 32.539062 C 88.097656 31.765625 88.695312 31.046875 89.363281 30.386719 C 90.03125 29.726562 90.761719 29.136719 91.546875 28.617188 C 92.332031 28.101562 93.164062 27.660156 94.039062 27.304688 C 94.914062 26.949219 95.8125 26.679688 96.742188 26.496094 C 97.667969 26.3125 98.605469 26.222656 99.554688 26.222656 C 100.5 26.222656 101.4375 26.3125 102.363281 26.496094 C 103.292969 26.679688 104.195312 26.949219 105.066406 27.304688 C 105.941406 27.660156 106.773438 28.101562 107.558594 28.617188 C 108.347656 29.136719 109.074219 29.726562 109.742188 30.386719 C 110.414062 31.046875 111.011719 31.765625 111.535156 32.539062 C 112.0625 33.316406 112.503906 34.136719 112.867188 35 C 113.230469 35.859375 113.503906 36.75 113.6875 37.664062 C 113.871094 38.582031 113.964844 39.503906 113.964844 40.4375 Z M 113.964844 40.4375 "/>
</clipPath>
<linearGradient id="linear0" gradientUnits="userSpaceOnUse" x1="262.600006" y1="60.599998" x2="190.599986" y2="60.599998" gradientTransform="matrix(0.400308,0,0,-0.394891,8.843282,64.368989)">
<stop offset="0" style="stop-color:rgb(32.899475%,68.199158%,86.299133%);stop-opacity:1;"/>
<stop offset="0.25" style="stop-color:rgb(32.879639%,68.147278%,86.24115%);stop-opacity:1;"/>
<stop offset="0.28125" style="stop-color:rgb(32.803345%,67.938232%,86.013794%);stop-opacity:1;"/>
<stop offset="0.3125" style="stop-color:rgb(32.69043%,67.623901%,85.671997%);stop-opacity:1;"/>
<stop offset="0.34375" style="stop-color:rgb(32.575989%,67.311096%,85.3302%);stop-opacity:1;"/>
<stop offset="0.359375" style="stop-color:rgb(32.455444%,66.972351%,84.999084%);stop-opacity:1;"/>
<stop offset="0.367187" style="stop-color:rgb(32.351685%,66.673279%,84.739685%);stop-opacity:1;"/>
<stop offset="0.375" style="stop-color:rgb(32.270813%,66.435242%,84.538269%);stop-opacity:1;"/>
<stop offset="0.382812" style="stop-color:rgb(32.189941%,66.19873%,84.338379%);stop-opacity:1;"/>
<stop offset="0.390625" style="stop-color:rgb(32.107544%,65.960693%,84.138489%);stop-opacity:1;"/>
<stop offset="0.398437" style="stop-color:rgb(32.026672%,65.722656%,83.938599%);stop-opacity:1;"/>
<stop offset="0.40625" style="stop-color:rgb(31.944275%,65.486145%,83.737183%);stop-opacity:1;"/>
<stop offset="0.414062" style="stop-color:rgb(31.863403%,65.248108%,83.537292%);stop-opacity:1;"/>
<stop offset="0.421875" style="stop-color:rgb(31.781006%,65.011597%,83.337402%);stop-opacity:1;"/>
<stop offset="0.429687" style="stop-color:rgb(31.700134%,64.77356%,83.137512%);stop-opacity:1;"/>
<stop offset="0.4375" style="stop-color:rgb(31.617737%,64.537048%,82.936096%);stop-opacity:1;"/>
<stop offset="0.445312" style="stop-color:rgb(31.536865%,64.299011%,82.736206%);stop-opacity:1;"/>
<stop offset="0.453125" style="stop-color:rgb(31.454468%,64.060974%,82.536316%);stop-opacity:1;"/>
<stop offset="0.460938" style="stop-color:rgb(31.358337%,63.764954%,82.28302%);stop-opacity:1;"/>
<stop offset="0.46875" style="stop-color:rgb(31.240845%,63.394165%,81.964111%);stop-opacity:1;"/>
<stop offset="0.476562" style="stop-color:rgb(31.1203%,63.011169%,81.632996%);stop-opacity:1;"/>
<stop offset="0.484375" style="stop-color:rgb(30.999756%,62.626648%,81.30188%);stop-opacity:1;"/>
<stop offset="0.492188" style="stop-color:rgb(30.879211%,62.243652%,80.970764%);stop-opacity:1;"/>
<stop offset="0.5" style="stop-color:rgb(30.758667%,61.859131%,80.639648%);stop-opacity:1;"/>
<stop offset="0.507812" style="stop-color:rgb(30.638123%,61.476135%,80.308533%);stop-opacity:1;"/>
<stop offset="0.515625" style="stop-color:rgb(30.517578%,61.09314%,79.977417%);stop-opacity:1;"/>
<stop offset="0.523438" style="stop-color:rgb(30.39856%,60.708618%,79.646301%);stop-opacity:1;"/>
<stop offset="0.53125" style="stop-color:rgb(30.278015%,60.325623%,79.315186%);stop-opacity:1;"/>
<stop offset="0.539062" style="stop-color:rgb(30.157471%,59.941101%,78.98407%);stop-opacity:1;"/>
<stop offset="0.546875" style="stop-color:rgb(30.036926%,59.558105%,78.652954%);stop-opacity:1;"/>
<stop offset="0.554688" style="stop-color:rgb(29.916382%,59.17511%,78.321838%);stop-opacity:1;"/>
<stop offset="0.558594" style="stop-color:rgb(29.782104%,58.758545%,77.961731%);stop-opacity:1;"/>
<stop offset="0.5625" style="stop-color:rgb(29.707336%,58.535767%,77.767944%);stop-opacity:1;"/>
<stop offset="0.566406" style="stop-color:rgb(29.618835%,58.282471%,77.545166%);stop-opacity:1;"/>
<stop offset="0.570312" style="stop-color:rgb(29.530334%,58.029175%,77.322388%);stop-opacity:1;"/>
<stop offset="0.574219" style="stop-color:rgb(29.441833%,57.775879%,77.099609%);stop-opacity:1;"/>
<stop offset="0.578125" style="stop-color:rgb(29.354858%,57.524109%,76.878357%);stop-opacity:1;"/>
<stop offset="0.582031" style="stop-color:rgb(29.266357%,57.270813%,76.655579%);stop-opacity:1;"/>
<stop offset="0.585938" style="stop-color:rgb(29.177856%,57.017517%,76.434326%);stop-opacity:1;"/>
<stop offset="0.589844" style="stop-color:rgb(29.089355%,56.764221%,76.211548%);stop-opacity:1;"/>
<stop offset="0.59375" style="stop-color:rgb(29.00238%,56.512451%,75.98877%);stop-opacity:1;"/>
<stop offset="0.597656" style="stop-color:rgb(28.913879%,56.259155%,75.765991%);stop-opacity:1;"/>
<stop offset="0.601562" style="stop-color:rgb(28.825378%,56.005859%,75.544739%);stop-opacity:1;"/>
<stop offset="0.605469" style="stop-color:rgb(28.736877%,55.752563%,75.32196%);stop-opacity:1;"/>
<stop offset="0.609375" style="stop-color:rgb(28.649902%,55.499268%,75.099182%);stop-opacity:1;"/>
<stop offset="0.613281" style="stop-color:rgb(28.561401%,55.245972%,74.876404%);stop-opacity:1;"/>
<stop offset="0.617188" style="stop-color:rgb(28.4729%,54.994202%,74.655151%);stop-opacity:1;"/>
<stop offset="0.621094" style="stop-color:rgb(28.384399%,54.740906%,74.432373%);stop-opacity:1;"/>
<stop offset="0.625" style="stop-color:rgb(28.297424%,54.48761%,74.211121%);stop-opacity:1;"/>
<stop offset="0.628906" style="stop-color:rgb(28.208923%,54.234314%,73.988342%);stop-opacity:1;"/>
<stop offset="0.632812" style="stop-color:rgb(28.120422%,53.982544%,73.765564%);stop-opacity:1;"/>
<stop offset="0.636719" style="stop-color:rgb(28.031921%,53.729248%,73.542786%);stop-opacity:1;"/>
<stop offset="0.640625" style="stop-color:rgb(27.944946%,53.475952%,73.321533%);stop-opacity:1;"/>
<stop offset="0.644531" style="stop-color:rgb(27.856445%,53.222656%,73.098755%);stop-opacity:1;"/>
<stop offset="0.648438" style="stop-color:rgb(27.767944%,52.970886%,72.877502%);stop-opacity:1;"/>
<stop offset="0.652344" style="stop-color:rgb(27.679443%,52.71759%,72.654724%);stop-opacity:1;"/>
<stop offset="0.65625" style="stop-color:rgb(27.590942%,52.464294%,72.431946%);stop-opacity:1;"/>
<stop offset="0.660156" style="stop-color:rgb(27.484131%,52.197266%,72.193909%);stop-opacity:1;"/>
<stop offset="0.664062" style="stop-color:rgb(27.377319%,51.931763%,71.955872%);stop-opacity:1;"/>
<stop offset="0.667969" style="stop-color:rgb(27.249146%,51.649475%,71.699524%);stop-opacity:1;"/>
<stop offset="0.671875" style="stop-color:rgb(27.122498%,51.368713%,71.444702%);stop-opacity:1;"/>
<stop offset="0.675781" style="stop-color:rgb(26.994324%,51.087952%,71.188354%);stop-opacity:1;"/>
<stop offset="0.679688" style="stop-color:rgb(26.86615%,50.80719%,70.933533%);stop-opacity:1;"/>
<stop offset="0.683594" style="stop-color:rgb(26.737976%,50.526428%,70.677185%);stop-opacity:1;"/>
<stop offset="0.6875" style="stop-color:rgb(26.611328%,50.245667%,70.422363%);stop-opacity:1;"/>
<stop offset="0.691406" style="stop-color:rgb(26.483154%,49.963379%,70.166016%);stop-opacity:1;"/>
<stop offset="0.695312" style="stop-color:rgb(26.35498%,49.682617%,69.911194%);stop-opacity:1;"/>
<stop offset="0.699219" style="stop-color:rgb(26.226807%,49.401855%,69.654846%);stop-opacity:1;"/>
<stop offset="0.703125" style="stop-color:rgb(26.100159%,49.121094%,69.400024%);stop-opacity:1;"/>
<stop offset="0.707031" style="stop-color:rgb(25.971985%,48.838806%,69.145203%);stop-opacity:1;"/>
<stop offset="0.710938" style="stop-color:rgb(25.843811%,48.558044%,68.890381%);stop-opacity:1;"/>
<stop offset="0.714844" style="stop-color:rgb(25.715637%,48.277283%,68.634033%);stop-opacity:1;"/>
<stop offset="0.71875" style="stop-color:rgb(25.588989%,47.996521%,68.379211%);stop-opacity:1;"/>
<stop offset="0.75" style="stop-color:rgb(25.543213%,47.897339%,68.289185%);stop-opacity:1;"/>
<stop offset="1" style="stop-color:rgb(25.498962%,47.799683%,68.199158%);stop-opacity:1;"/>
</linearGradient>
<clipPath id="clip3">
  <path d="M 18 26 L 48 26 L 48 55 L 18 55 Z M 18 26 "/>
</clipPath>
<clipPath id="clip4">
  <path d="M 18.25 26.222656 L 18.25 54.65625 L 47.074219 54.65625 Z M 18.25 26.222656 "/>
</clipPath>
<linearGradient id="linear1" gradientUnits="userSpaceOnUse" x1="5.499674" y1="78.598381" x2="77.502273" y2="6.600979" gradientTransform="matrix(0.400308,0,0,-0.394891,8.843282,64.368989)">
<stop offset="0" style="stop-color:rgb(32.899475%,68.199158%,86.299133%);stop-opacity:1;"/>
<stop offset="0.25" style="stop-color:rgb(32.899475%,68.199158%,86.299133%);stop-opacity:1;"/>
<stop offset="0.375" style="stop-color:rgb(32.894897%,68.188477%,86.291504%);stop-opacity:1;"/>
<stop offset="0.390625" style="stop-color:rgb(32.829285%,68.005371%,86.158752%);stop-opacity:1;"/>
<stop offset="0.40625" style="stop-color:rgb(32.704163%,67.660522%,85.908508%);stop-opacity:1;"/>
<stop offset="0.421875" style="stop-color:rgb(32.579041%,67.3172%,85.658264%);stop-opacity:1;"/>
<stop offset="0.429687" style="stop-color:rgb(32.45697%,66.950989%,85.343933%);stop-opacity:1;"/>
<stop offset="0.433594" style="stop-color:rgb(32.330322%,66.522217%,84.922791%);stop-opacity:1;"/>
<stop offset="0.4375" style="stop-color:rgb(32.263184%,66.288757%,84.689331%);stop-opacity:1;"/>
<stop offset="0.441406" style="stop-color:rgb(32.194519%,66.055298%,84.454346%);stop-opacity:1;"/>
<stop offset="0.445312" style="stop-color:rgb(32.125854%,65.821838%,84.220886%);stop-opacity:1;"/>
<stop offset="0.449219" style="stop-color:rgb(32.05719%,65.586853%,83.987427%);stop-opacity:1;"/>
<stop offset="0.453125" style="stop-color:rgb(31.990051%,65.353394%,83.753967%);stop-opacity:1;"/>
<stop offset="0.457031" style="stop-color:rgb(31.921387%,65.119934%,83.520508%);stop-opacity:1;"/>
<stop offset="0.460938" style="stop-color:rgb(31.854248%,64.886475%,83.287048%);stop-opacity:1;"/>
<stop offset="0.464844" style="stop-color:rgb(31.723022%,64.489746%,82.9422%);stop-opacity:1;"/>
<stop offset="0.46875" style="stop-color:rgb(31.593323%,64.094543%,82.597351%);stop-opacity:1;"/>
<stop offset="0.472656" style="stop-color:rgb(31.420898%,63.591003%,82.17926%);stop-opacity:1;"/>
<stop offset="0.476562" style="stop-color:rgb(31.25%,63.087463%,81.761169%);stop-opacity:1;"/>
<stop offset="0.480469" style="stop-color:rgb(31.077576%,62.582397%,81.343079%);stop-opacity:1;"/>
<stop offset="0.484375" style="stop-color:rgb(30.906677%,62.078857%,80.924988%);stop-opacity:1;"/>
<stop offset="0.488281" style="stop-color:rgb(30.735779%,61.575317%,80.506897%);stop-opacity:1;"/>
<stop offset="0.492188" style="stop-color:rgb(30.56488%,61.071777%,80.088806%);stop-opacity:1;"/>
<stop offset="0.496094" style="stop-color:rgb(30.392456%,60.566711%,79.670715%);stop-opacity:1;"/>
<stop offset="0.5" style="stop-color:rgb(30.221558%,60.063171%,79.252625%);stop-opacity:1;"/>
<stop offset="0.503906" style="stop-color:rgb(29.954529%,59.402466%,78.639221%);stop-opacity:1;"/>
<stop offset="0.507812" style="stop-color:rgb(29.6875%,58.74176%,78.027344%);stop-opacity:1;"/>
<stop offset="0.511719" style="stop-color:rgb(29.414368%,58.070374%,77.400208%);stop-opacity:1;"/>
<stop offset="0.515625" style="stop-color:rgb(29.141235%,57.398987%,76.774597%);stop-opacity:1;"/>
<stop offset="0.519531" style="stop-color:rgb(28.868103%,56.726074%,76.148987%);stop-opacity:1;"/>
<stop offset="0.523437" style="stop-color:rgb(28.594971%,56.054688%,75.523376%);stop-opacity:1;"/>
<stop offset="0.527344" style="stop-color:rgb(28.321838%,55.383301%,74.89624%);stop-opacity:1;"/>
<stop offset="0.53125" style="stop-color:rgb(28.048706%,54.711914%,74.27063%);stop-opacity:1;"/>
<stop offset="0.535156" style="stop-color:rgb(27.764893%,53.968811%,73.603821%);stop-opacity:1;"/>
<stop offset="0.539062" style="stop-color:rgb(27.481079%,53.225708%,72.937012%);stop-opacity:1;"/>
<stop offset="0.542969" style="stop-color:rgb(27.186584%,52.423096%,72.235107%);stop-opacity:1;"/>
<stop offset="0.546875" style="stop-color:rgb(26.893616%,51.620483%,71.534729%);stop-opacity:1;"/>
<stop offset="0.550781" style="stop-color:rgb(26.600647%,50.817871%,70.834351%);stop-opacity:1;"/>
<stop offset="0.554688" style="stop-color:rgb(26.307678%,50.015259%,70.133972%);stop-opacity:1;"/>
<stop offset="0.558594" style="stop-color:rgb(26.014709%,49.211121%,69.432068%);stop-opacity:1;"/>
<stop offset="0.5625" style="stop-color:rgb(25.721741%,48.408508%,68.731689%);stop-opacity:1;"/>
<stop offset="0.566406" style="stop-color:rgb(25.610352%,48.103333%,68.464661%);stop-opacity:1;"/>
<stop offset="0.570312" style="stop-color:rgb(25.498962%,47.799683%,68.199158%);stop-opacity:1;"/>
<stop offset="0.578125" style="stop-color:rgb(25.498962%,47.799683%,68.199158%);stop-opacity:1;"/>
<stop offset="0.59375" style="stop-color:rgb(25.498962%,47.799683%,68.199158%);stop-opacity:1;"/>
<stop offset="0.625" style="stop-color:rgb(25.498962%,47.799683%,68.199158%);stop-opacity:1;"/>
<stop offset="0.75" style="stop-color:rgb(25.498962%,47.799683%,68.199158%);stop-opacity:1;"/>
<stop offset="1" style="stop-color:rgb(25.498962%,47.799683%,68.199158%);stop-opacity:1;"/>
</linearGradient>
</defs>
<g id="surface1">
<path style=" stroke:none;fill-rule:nonzero;fill:rgb(32.939148%,68.238831%,86.268616%);fill-opacity:1;" d="M 80.738281 40.4375 C 80.738281 41.371094 80.644531 42.296875 80.460938 43.210938 C 80.277344 44.128906 80.003906 45.015625 79.640625 45.878906 C 79.28125 46.742188 78.835938 47.558594 78.308594 48.335938 C 77.785156 49.113281 77.1875 49.832031 76.519531 50.492188 C 75.847656 51.152344 75.121094 51.738281 74.332031 52.257812 C 73.546875 52.777344 72.714844 53.214844 71.84375 53.574219 C 70.96875 53.929688 70.066406 54.199219 69.140625 54.382812 C 68.210938 54.5625 67.273438 54.65625 66.328125 54.65625 C 65.382812 54.65625 64.445312 54.5625 63.515625 54.382812 C 62.589844 54.199219 61.6875 53.929688 60.8125 53.574219 C 59.9375 53.214844 59.109375 52.777344 58.320312 52.257812 C 57.535156 51.738281 56.804688 51.152344 56.136719 50.492188 C 55.46875 49.832031 54.871094 49.113281 54.34375 48.335938 C 53.820312 47.558594 53.375 46.742188 53.011719 45.878906 C 52.652344 45.015625 52.378906 44.128906 52.191406 43.210938 C 52.007812 42.296875 51.917969 41.371094 51.917969 40.4375 C 51.917969 39.503906 52.007812 38.582031 52.191406 37.664062 C 52.378906 36.75 52.652344 35.859375 53.011719 35 C 53.375 34.136719 53.820312 33.316406 54.34375 32.539062 C 54.871094 31.765625 55.46875 31.046875 56.136719 30.386719 C 56.804688 29.726562 57.535156 29.136719 58.320312 28.617188 C 59.109375 28.101562 59.9375 27.660156 60.8125 27.304688 C 61.6875 26.949219 62.589844 26.679688 63.515625 26.496094 C 64.445312 26.3125 65.382812 26.222656 66.328125 26.222656 C 67.273438 26.222656 68.210938 26.3125 69.140625 26.496094 C 70.066406 26.679688 70.96875 26.949219 71.84375 27.304688 C 72.714844 27.660156 73.546875 28.101562 74.332031 28.617188 C 75.121094 29.136719 75.847656 29.726562 76.519531 30.386719 C 77.1875 31.046875 77.785156 31.765625 78.308594 32.539062 C 78.835938 33.316406 79.28125 34.136719 79.640625 35 C 80.003906 35.859375 80.277344 36.75 80.460938 37.664062 C 80.644531 38.582031 80.738281 39.503906 80.738281 40.4375 Z M 80.738281 40.4375 "/>
<path style=" stroke:none;fill-rule:nonzero;fill:rgb(32.939148%,68.238831%,86.268616%);fill-opacity:1;" d="M 146.75 40.4375 C 146.75 41.371094 146.65625 42.296875 146.472656 43.210938 C 146.289062 44.128906 146.015625 45.015625 145.652344 45.878906 C 145.289062 46.742188 144.847656 47.558594 144.320312 48.335938 C 143.796875 49.113281 143.199219 49.832031 142.527344 50.492188 C 141.859375 51.152344 141.132812 51.738281 140.34375 52.257812 C 139.558594 52.777344 138.726562 53.214844 137.851562 53.574219 C 136.980469 53.929688 136.078125 54.199219 135.148438 54.382812 C 134.222656 54.5625 133.285156 54.65625 132.339844 54.65625 C 131.390625 54.65625 130.453125 54.5625 129.527344 54.382812 C 128.597656 54.199219 127.699219 53.929688 126.824219 53.574219 C 125.949219 53.214844 125.117188 52.777344 124.332031 52.257812 C 123.546875 51.738281 122.816406 51.152344 122.148438 50.492188 C 121.480469 49.832031 120.882812 49.113281 120.355469 48.335938 C 119.832031 47.558594 119.386719 46.742188 119.023438 45.878906 C 118.664062 45.015625 118.390625 44.128906 118.203125 43.210938 C 118.019531 42.296875 117.925781 41.371094 117.925781 40.4375 C 117.925781 39.503906 118.019531 38.582031 118.203125 37.664062 C 118.390625 36.75 118.664062 35.859375 119.023438 35 C 119.386719 34.136719 119.832031 33.316406 120.355469 32.539062 C 120.882812 31.765625 121.480469 31.046875 122.148438 30.386719 C 122.816406 29.726562 123.546875 29.136719 124.332031 28.617188 C 125.117188 28.101562 125.949219 27.660156 126.824219 27.304688 C 127.699219 26.949219 128.597656 26.679688 129.527344 26.496094 C 130.453125 26.3125 131.390625 26.222656 132.339844 26.222656 C 133.285156 26.222656 134.222656 26.3125 135.148438 26.496094 C 136.078125 26.679688 136.980469 26.949219 137.851562 27.304688 C 138.726562 27.660156 139.558594 28.101562 140.34375 28.617188 C 141.132812 29.136719 141.859375 29.726562 142.527344 30.386719 C 143.199219 31.046875 143.796875 31.765625 144.320312 32.539062 C 144.847656 33.316406 145.289062 34.136719 145.652344 35 C 146.015625 35.859375 146.289062 36.75 146.472656 37.664062 C 146.65625 38.582031 146.75 39.503906 146.75 40.4375 Z M 146.75 40.4375 "/>
<g clip-path="url(#clip1)" clip-rule="nonzero">
<g clip-path="url(#clip2)" clip-rule="nonzero">
<path style=" stroke:none;fill-rule:nonzero;fill:url(#linear0);" d="M 85.140625 54.65625 L 85.140625 26.222656 L 113.964844 26.222656 L 113.964844 54.65625 Z M 85.140625 54.65625 "/>
</g>
</g>
<g clip-path="url(#clip3)" clip-rule="nonzero">
<g clip-path="url(#clip4)" clip-rule="nonzero">
<path style=" stroke:none;fill-rule:nonzero;fill:url(#linear1);" d="M 18.25 54.65625 L 18.25 26.222656 L 47.074219 26.222656 L 47.074219 54.65625 Z M 18.25 54.65625 "/>
</g>
</g>
<path style=" stroke:none;fill-rule:nonzero;fill:rgb(32.939148%,68.238831%,86.268616%);fill-opacity:1;" d="M 47.074219 26.222656 L 47.074219 54.65625 L 18.25 54.65625 Z M 47.074219 26.222656 "/>
<path style=" stroke:none;fill-rule:nonzero;fill:rgb(32.939148%,68.238831%,86.268616%);fill-opacity:1;" d="M 85.140625 26.222656 L 99.554688 26.222656 L 99.554688 54.65625 L 85.140625 54.65625 Z M 85.140625 26.222656 "/>
</g>
</svg>
