<?xml version="1.0" encoding="UTF-8"?>
<svg xmlns="http://www.w3.org/2000/svg" xmlns:xlink="http://www.w3.org/1999/xlink" width="165pt" height="82.499998pt" viewBox="0 0 165 82.499998" version="1.2">
<defs>
<clipPath id="clip1">
  <path d="M 0.496094 0 L 164.503906 0 L 164.503906 82.003906 L 0.496094 82.003906 Z M 0.496094 0 "/>
</clipPath>
<clipPath id="clip2">
  <path d="M 4 73 L 164 73 L 164 82.003906 L 4 82.003906 Z M 4 73 "/>
</clipPath>
</defs>
<g id="surface1">
<g clip-path="url(#clip1)" clip-rule="nonzero">
<path style=" stroke:none;fill-rule:nonzero;fill:rgb(100%,100%,100%);fill-opacity:1;" d="M 0.496094 0 L 164.503906 0 L 164.503906 171.460938 L 0.496094 171.460938 Z M 0.496094 0 "/>
<path style=" stroke:none;fill-rule:nonzero;fill:rgb(100%,100%,100%);fill-opacity:1;" d="M 0.496094 0 L 164.503906 0 L 164.503906 82.003906 L 0.496094 82.003906 Z M 0.496094 0 "/>
<path style=" stroke:none;fill-rule:nonzero;fill:rgb(100%,100%,100%);fill-opacity:1;" d="M 0.496094 0 L 164.503906 0 L 164.503906 82.003906 L 0.496094 82.003906 Z M 0.496094 0 "/>
</g>
<path style=" stroke:none;fill-rule:nonzero;fill:rgb(100%,100%,100%);fill-opacity:1;" d="M 4.832031 -36.902344 L 163.140625 -36.902344 L 163.140625 8.289062 L 4.832031 8.289062 Z M 4.832031 -36.902344 "/>
<g clip-path="url(#clip2)" clip-rule="nonzero">
<path style=" stroke:none;fill-rule:nonzero;fill:rgb(100%,100%,100%);fill-opacity:1;" d="M 4.832031 73.800781 L 163.140625 73.800781 L 163.140625 118.996094 L 4.832031 118.996094 Z M 4.832031 73.800781 "/>
</g>
<path style=" stroke:none;fill-rule:nonzero;fill:rgb(21.958923%,21.958923%,21.179199%);fill-opacity:1;" d="M 37.277344 24.839844 L 35.425781 27.476562 C 35.910156 27.804688 36.375 28.160156 36.816406 28.546875 C 37.257812 28.929688 37.671875 29.339844 38.0625 29.773438 C 38.453125 30.207031 38.816406 30.660156 39.148438 31.136719 C 39.484375 31.613281 39.789062 32.109375 40.0625 32.621094 C 40.335938 33.136719 40.578125 33.664062 40.785156 34.203125 C 40.992188 34.746094 41.167969 35.296875 41.308594 35.859375 C 41.449219 36.421875 41.554688 36.992188 41.628906 37.566406 C 41.699219 38.140625 41.734375 38.71875 41.734375 39.296875 C 41.734375 39.878906 41.699219 40.457031 41.628906 41.03125 C 41.554688 41.605469 41.449219 42.175781 41.308594 42.738281 C 41.167969 43.300781 40.992188 43.851562 40.785156 44.394531 C 40.578125 44.933594 40.335938 45.460938 40.0625 45.972656 C 39.789062 46.488281 39.484375 46.980469 39.148438 47.460938 C 38.816406 47.9375 38.453125 48.390625 38.0625 48.824219 C 37.671875 49.257812 37.257812 49.667969 36.816406 50.050781 C 36.375 50.433594 35.910156 50.792969 35.425781 51.121094 L 37.28125 53.753906 C 37.871094 53.351562 38.4375 52.914062 38.976562 52.445312 C 39.515625 51.972656 40.023438 51.472656 40.5 50.941406 C 40.976562 50.414062 41.417969 49.855469 41.824219 49.273438 C 42.234375 48.691406 42.605469 48.085938 42.941406 47.457031 C 43.273438 46.832031 43.566406 46.1875 43.824219 45.523438 C 44.078125 44.859375 44.292969 44.1875 44.464844 43.5 C 44.636719 42.8125 44.765625 42.117188 44.851562 41.414062 C 44.9375 40.710938 44.980469 40.003906 44.980469 39.296875 C 44.980469 38.589844 44.9375 37.882812 44.851562 37.179688 C 44.765625 36.476562 44.636719 35.78125 44.464844 35.09375 C 44.292969 34.40625 44.078125 33.730469 43.824219 33.070312 C 43.566406 32.40625 43.273438 31.761719 42.941406 31.136719 C 42.605469 30.507812 42.234375 29.902344 41.824219 29.320312 C 41.417969 28.738281 40.976562 28.179688 40.5 27.648438 C 40.023438 27.121094 39.515625 26.621094 38.976562 26.148438 C 38.4375 25.679688 37.871094 25.242188 37.28125 24.839844 Z M 37.277344 24.839844 "/>
<path style=" stroke:none;fill-rule:nonzero;fill:rgb(21.958923%,21.958923%,21.179199%);fill-opacity:1;" d="M 18.78125 27.476562 L 16.929688 24.84375 C 16.335938 25.246094 15.773438 25.683594 15.234375 26.152344 C 14.695312 26.625 14.1875 27.125 13.710938 27.652344 C 13.234375 28.183594 12.792969 28.742188 12.386719 29.324219 C 11.976562 29.90625 11.605469 30.511719 11.273438 31.140625 C 10.9375 31.765625 10.644531 32.410156 10.390625 33.074219 C 10.132812 33.734375 9.921875 34.410156 9.75 35.097656 C 9.578125 35.785156 9.449219 36.480469 9.359375 37.183594 C 9.273438 37.886719 9.230469 38.589844 9.230469 39.296875 C 9.230469 40.007812 9.273438 40.710938 9.359375 41.414062 C 9.449219 42.117188 9.578125 42.8125 9.75 43.5 C 9.921875 44.1875 10.132812 44.863281 10.390625 45.523438 C 10.644531 46.1875 10.9375 46.832031 11.273438 47.457031 C 11.605469 48.085938 11.976562 48.691406 12.386719 49.273438 C 12.792969 49.855469 13.234375 50.414062 13.710938 50.941406 C 14.1875 51.472656 14.695312 51.972656 15.234375 52.445312 C 15.773438 52.914062 16.335938 53.351562 16.929688 53.753906 L 18.78125 51.121094 C 18.296875 50.792969 17.835938 50.433594 17.394531 50.050781 C 16.957031 49.667969 16.539062 49.257812 16.148438 48.824219 C 15.761719 48.390625 15.398438 47.933594 15.0625 47.457031 C 14.730469 46.980469 14.425781 46.484375 14.152344 45.972656 C 13.878906 45.460938 13.636719 44.933594 13.429688 44.390625 C 13.222656 43.851562 13.046875 43.296875 12.90625 42.734375 C 12.765625 42.171875 12.660156 41.605469 12.589844 41.03125 C 12.515625 40.453125 12.480469 39.878906 12.480469 39.296875 C 12.480469 38.71875 12.515625 38.144531 12.589844 37.566406 C 12.660156 36.992188 12.765625 36.425781 12.90625 35.863281 C 13.046875 35.300781 13.222656 34.746094 13.429688 34.207031 C 13.636719 33.664062 13.878906 33.136719 14.152344 32.625 C 14.425781 32.113281 14.730469 31.617188 15.0625 31.140625 C 15.398438 30.664062 15.761719 30.207031 16.148438 29.773438 C 16.539062 29.339844 16.957031 28.929688 17.394531 28.546875 C 17.835938 28.164062 18.296875 27.804688 18.78125 27.476562 Z M 18.78125 27.476562 "/>
<path style=" stroke:none;fill-rule:nonzero;fill:rgb(89.408875%,14.509583%,11.759949%);fill-opacity:1;" d="M 56.597656 33.59375 C 57.375 33.589844 58.117188 33.734375 58.832031 34.027344 C 59.550781 34.320312 60.175781 34.738281 60.71875 35.285156 L 59.082031 36.894531 C 58.757812 36.578125 58.386719 36.332031 57.96875 36.15625 C 57.066406 35.785156 56.164062 35.785156 55.261719 36.15625 C 54.84375 36.332031 54.472656 36.578125 54.152344 36.890625 C 53.828125 37.207031 53.574219 37.570312 53.398438 37.984375 C 53.210938 38.40625 53.121094 38.851562 53.125 39.316406 L 53.125 45.03125 L 50.792969 45.03125 L 50.792969 33.5625 L 53.125 33.5625 L 53.125 34.769531 C 53.621094 34.394531 54.167969 34.105469 54.761719 33.90625 C 55.355469 33.699219 55.96875 33.597656 56.597656 33.59375 Z M 56.597656 33.59375 "/>
<path style=" stroke:none;fill-rule:nonzero;fill:rgb(89.408875%,14.509583%,11.759949%);fill-opacity:1;" d="M 67.808594 33.5625 C 68.601562 33.558594 69.363281 33.707031 70.09375 34.007812 C 70.796875 34.300781 71.417969 34.710938 71.957031 35.242188 C 72.496094 35.773438 72.910156 36.386719 73.207031 37.078125 C 73.515625 37.792969 73.667969 38.542969 73.664062 39.324219 L 73.664062 40.476562 L 64.519531 40.476562 C 64.636719 40.8125 64.804688 41.121094 65.019531 41.402344 C 65.230469 41.683594 65.484375 41.921875 65.773438 42.125 C 66.0625 42.328125 66.378906 42.484375 66.722656 42.59375 C 67.074219 42.710938 67.4375 42.765625 67.808594 42.765625 C 68.28125 42.765625 68.738281 42.679688 69.171875 42.5 C 69.59375 42.332031 69.964844 42.085938 70.28125 41.765625 L 71.941406 43.402344 C 71.527344 43.800781 71.0625 44.132812 70.546875 44.398438 C 70.035156 44.664062 69.492188 44.847656 68.921875 44.957031 C 68.351562 45.0625 67.777344 45.085938 67.199219 45.027344 C 66.621094 44.96875 66.066406 44.828125 65.53125 44.609375 C 64.832031 44.316406 64.214844 43.902344 63.675781 43.375 C 63.140625 42.847656 62.722656 42.238281 62.425781 41.550781 C 62.125 40.832031 61.972656 40.085938 61.972656 39.3125 C 61.976562 38.535156 62.128906 37.792969 62.433594 37.078125 C 62.730469 36.386719 63.144531 35.777344 63.683594 35.246094 C 64.21875 34.71875 64.839844 34.304688 65.539062 34.011719 C 66.265625 33.710938 67.019531 33.558594 67.808594 33.5625 Z M 67.808594 35.867188 C 67.257812 35.867188 66.738281 35.988281 66.246094 36.230469 C 65.753906 36.472656 65.347656 36.8125 65.019531 37.246094 C 64.804688 37.53125 64.640625 37.839844 64.519531 38.175781 L 71.113281 38.175781 C 70.992188 37.839844 70.828125 37.53125 70.617188 37.246094 C 70.285156 36.808594 69.875 36.46875 69.378906 36.226562 C 68.886719 35.984375 68.363281 35.867188 67.808594 35.867188 Z M 67.808594 35.867188 "/>
<path style=" stroke:none;fill-rule:nonzero;fill:rgb(89.408875%,14.509583%,11.759949%);fill-opacity:1;" d="M 87.671875 33.574219 L 87.671875 43.917969 C 87.675781 44.691406 87.523438 45.433594 87.21875 46.140625 C 86.921875 46.832031 86.503906 47.441406 85.96875 47.96875 C 85.429688 48.5 84.8125 48.910156 84.113281 49.199219 C 83.386719 49.503906 82.628906 49.65625 81.84375 49.65625 C 81.054688 49.65625 80.296875 49.503906 79.574219 49.199219 C 78.875 48.902344 78.261719 48.480469 77.726562 47.945312 L 79.363281 46.335938 C 79.6875 46.652344 80.058594 46.898438 80.472656 47.078125 C 80.90625 47.265625 81.355469 47.355469 81.824219 47.351562 C 82.300781 47.359375 82.757812 47.269531 83.195312 47.082031 C 83.625 46.910156 84.007812 46.660156 84.335938 46.335938 C 84.65625 46.015625 84.90625 45.648438 85.085938 45.234375 C 85.265625 44.816406 85.351562 44.375 85.347656 43.917969 L 85.347656 43.878906 C 84.847656 44.246094 84.300781 44.527344 83.710938 44.726562 C 83.097656 44.933594 82.472656 45.035156 81.824219 45.03125 C 81.039062 45.035156 80.285156 44.882812 79.566406 44.578125 C 78.867188 44.296875 78.246094 43.894531 77.707031 43.371094 C 77.171875 42.84375 76.753906 42.234375 76.457031 41.550781 C 76.148438 40.835938 75.992188 40.089844 75.992188 39.3125 C 75.992188 38.535156 76.148438 37.792969 76.457031 37.078125 C 76.753906 36.390625 77.171875 35.78125 77.707031 35.253906 C 78.246094 34.726562 78.863281 34.316406 79.566406 34.027344 C 80.929688 33.464844 82.308594 33.414062 83.710938 33.875 C 84.300781 34.078125 84.84375 34.359375 85.347656 34.726562 L 85.347656 33.574219 Z M 81.839844 42.75 C 82.316406 42.753906 82.773438 42.664062 83.210938 42.480469 C 84.09375 42.121094 84.71875 41.507812 85.085938 40.644531 C 85.464844 39.75 85.464844 38.859375 85.085938 37.964844 C 84.910156 37.554688 84.660156 37.1875 84.335938 36.871094 C 84.007812 36.554688 83.632812 36.3125 83.210938 36.140625 C 82.773438 35.953125 82.316406 35.863281 81.839844 35.867188 C 81.371094 35.867188 80.917969 35.957031 80.484375 36.140625 C 80.066406 36.3125 79.695312 36.554688 79.367188 36.871094 C 78.679688 37.542969 78.339844 38.355469 78.34375 39.3125 C 78.339844 39.773438 78.433594 40.21875 78.617188 40.644531 C 78.984375 41.503906 79.609375 42.117188 80.484375 42.480469 C 80.917969 42.660156 81.371094 42.75 81.839844 42.75 Z M 81.839844 42.75 "/>
<path style=" stroke:none;fill-rule:nonzero;fill:rgb(89.408875%,14.509583%,11.759949%);fill-opacity:1;" d="M 91.191406 28.5 C 91.417969 28.496094 91.636719 28.539062 91.84375 28.628906 C 92.042969 28.710938 92.21875 28.824219 92.371094 28.972656 C 92.527344 29.121094 92.648438 29.292969 92.734375 29.488281 C 92.914062 29.914062 92.914062 30.339844 92.734375 30.765625 C 92.648438 30.964844 92.53125 31.136719 92.371094 31.289062 C 92.21875 31.4375 92.042969 31.554688 91.84375 31.636719 C 91.636719 31.726562 91.417969 31.769531 91.191406 31.765625 C 90.964844 31.769531 90.753906 31.726562 90.546875 31.636719 C 90.347656 31.554688 90.175781 31.441406 90.023438 31.289062 C 89.871094 31.136719 89.753906 30.960938 89.667969 30.765625 C 89.484375 30.339844 89.484375 29.914062 89.667969 29.488281 C 89.753906 29.296875 89.875 29.125 90.023438 28.972656 C 90.175781 28.824219 90.351562 28.710938 90.546875 28.628906 C 90.753906 28.539062 90.964844 28.496094 91.191406 28.5 Z M 90.039062 33.574219 L 92.371094 33.574219 L 92.371094 45.046875 L 90.039062 45.046875 Z M 90.039062 33.574219 "/>
<path style=" stroke:none;fill-rule:nonzero;fill:rgb(89.408875%,14.509583%,11.759949%);fill-opacity:1;" d="M 102.941406 38.132812 C 103.917969 38.128906 104.75 38.464844 105.4375 39.140625 C 105.761719 39.460938 106.015625 39.828125 106.195312 40.242188 C 106.582031 41.136719 106.582031 42.035156 106.195312 42.929688 C 105.820312 43.789062 105.191406 44.402344 104.316406 44.765625 C 103.878906 44.949219 103.421875 45.039062 102.945312 45.035156 L 94.757812 45.035156 L 94.757812 42.710938 L 102.941406 42.710938 C 103.101562 42.714844 103.253906 42.683594 103.398438 42.625 C 103.542969 42.566406 103.667969 42.484375 103.78125 42.378906 C 103.890625 42.273438 103.976562 42.152344 104.035156 42.011719 C 104.097656 41.871094 104.128906 41.726562 104.128906 41.574219 C 104.128906 41.417969 104.097656 41.265625 104.035156 41.121094 C 103.976562 40.984375 103.894531 40.863281 103.78125 40.761719 C 103.667969 40.65625 103.542969 40.578125 103.398438 40.519531 C 103.253906 40.457031 103.101562 40.429688 102.941406 40.429688 L 98.273438 40.429688 C 97.796875 40.433594 97.339844 40.339844 96.902344 40.152344 C 96.023438 39.785156 95.398438 39.167969 95.023438 38.304688 C 94.628906 37.40625 94.628906 36.507812 95.023438 35.613281 C 95.203125 35.199219 95.457031 34.832031 95.78125 34.511719 C 96.46875 33.835938 97.300781 33.5 98.273438 33.507812 L 104.128906 33.507812 L 104.128906 35.8125 L 98.265625 35.8125 C 98.105469 35.8125 97.953125 35.839844 97.804688 35.902344 C 97.664062 35.960938 97.539062 36.039062 97.425781 36.144531 C 97.3125 36.246094 97.226562 36.367188 97.167969 36.507812 C 97.074219 36.726562 97.050781 36.949219 97.097656 37.179688 C 97.144531 37.410156 97.253906 37.609375 97.425781 37.773438 C 97.539062 37.878906 97.664062 37.964844 97.804688 38.027344 C 97.953125 38.089844 98.101562 38.121094 98.261719 38.121094 Z M 111.125 35.835938 L 111.125 40.460938 C 111.125 40.769531 111.183594 41.066406 111.308594 41.351562 C 111.425781 41.628906 111.59375 41.875 111.808594 42.089844 C 112.023438 42.300781 112.265625 42.460938 112.546875 42.578125 C 112.828125 42.703125 113.125 42.761719 113.4375 42.761719 L 113.4375 45.066406 C 112.804688 45.070312 112.199219 44.949219 111.621094 44.703125 C 110.460938 44.214844 109.632812 43.402344 109.136719 42.257812 C 108.886719 41.683594 108.765625 41.085938 108.769531 40.460938 L 108.769531 35.835938 L 106.433594 35.835938 L 106.433594 33.5625 L 108.769531 33.5625 L 108.769531 28.957031 L 111.125 28.957031 L 111.125 33.5625 L 113.457031 33.5625 L 113.457031 35.835938 Z M 111.125 35.835938 "/>
<path style=" stroke:none;fill-rule:nonzero;fill:rgb(89.408875%,14.509583%,11.759949%);fill-opacity:1;" d="M 120.488281 33.5625 C 121.28125 33.554688 122.039062 33.707031 122.769531 34.007812 C 123.300781 34.230469 123.789062 34.519531 124.230469 34.882812 C 124.675781 35.242188 125.054688 35.660156 125.371094 36.132812 C 125.691406 36.605469 125.933594 37.113281 126.097656 37.65625 C 126.261719 38.199219 126.34375 38.753906 126.34375 39.320312 L 126.34375 40.472656 L 117.199219 40.472656 C 117.316406 40.808594 117.480469 41.117188 117.695312 41.398438 C 117.910156 41.679688 118.160156 41.917969 118.449219 42.121094 C 118.742188 42.324219 119.058594 42.480469 119.398438 42.589844 C 119.753906 42.707031 120.113281 42.761719 120.488281 42.761719 C 120.960938 42.761719 121.414062 42.675781 121.851562 42.496094 C 122.269531 42.328125 122.640625 42.082031 122.957031 41.761719 L 124.628906 43.398438 C 124.089844 43.917969 123.476562 44.320312 122.777344 44.605469 C 122.046875 44.902344 121.289062 45.046875 120.496094 45.046875 C 119.707031 45.046875 118.945312 44.902344 118.214844 44.605469 C 117.515625 44.3125 116.898438 43.898438 116.363281 43.371094 C 115.824219 42.84375 115.40625 42.234375 115.109375 41.542969 C 114.804688 40.828125 114.652344 40.078125 114.652344 39.300781 C 114.652344 38.523438 114.804688 37.773438 115.109375 37.054688 C 115.40625 36.367188 115.824219 35.757812 116.359375 35.226562 C 116.898438 34.699219 117.515625 34.285156 118.214844 33.992188 C 118.941406 33.695312 119.699219 33.550781 120.488281 33.5625 Z M 120.488281 35.867188 C 119.9375 35.867188 119.417969 35.988281 118.925781 36.230469 C 118.433594 36.472656 118.023438 36.8125 117.695312 37.246094 C 117.484375 37.53125 117.316406 37.839844 117.199219 38.175781 L 123.808594 38.175781 C 123.6875 37.839844 123.519531 37.53125 123.300781 37.246094 C 123.085938 36.964844 122.835938 36.71875 122.546875 36.511719 C 121.933594 36.078125 121.253906 35.863281 120.5 35.867188 Z M 120.488281 35.867188 "/>
<path style=" stroke:none;fill-rule:nonzero;fill:rgb(89.408875%,14.509583%,11.759949%);fill-opacity:1;" d="M 134.519531 33.59375 C 135.292969 33.589844 136.039062 33.734375 136.753906 34.027344 C 137.46875 34.320312 138.097656 34.738281 138.636719 35.285156 L 137 36.894531 C 136.679688 36.578125 136.308594 36.332031 135.886719 36.15625 C 134.984375 35.785156 134.082031 35.785156 133.179688 36.15625 C 132.761719 36.332031 132.394531 36.578125 132.070312 36.890625 C 131.746094 37.207031 131.496094 37.570312 131.316406 37.984375 C 131.132812 38.40625 131.039062 38.851562 131.042969 39.316406 L 131.042969 45.03125 L 128.71875 45.03125 L 128.71875 33.5625 L 131.050781 33.5625 L 131.050781 34.769531 C 131.550781 34.394531 132.09375 34.105469 132.6875 33.90625 C 133.28125 33.699219 133.890625 33.597656 134.519531 33.59375 Z M 134.519531 33.59375 "/>
<path style=" stroke:none;fill-rule:nonzero;fill:rgb(89.408875%,14.509583%,11.759949%);fill-opacity:1;" d="M 140.292969 42.308594 C 140.515625 42.304688 140.726562 42.347656 140.929688 42.4375 C 141.339844 42.609375 141.632812 42.894531 141.8125 43.292969 C 141.902344 43.488281 141.945312 43.695312 141.945312 43.910156 C 141.945312 44.132812 141.902344 44.34375 141.8125 44.546875 C 141.636719 44.949219 141.347656 45.234375 140.941406 45.410156 C 140.515625 45.585938 140.089844 45.585938 139.664062 45.410156 C 139.46875 45.324219 139.292969 45.210938 139.140625 45.0625 C 138.988281 44.914062 138.867188 44.742188 138.78125 44.546875 C 138.695312 44.34375 138.648438 44.132812 138.652344 43.910156 C 138.652344 43.695312 138.695312 43.488281 138.78125 43.292969 C 138.867188 43.097656 138.988281 42.925781 139.140625 42.777344 C 139.292969 42.628906 139.46875 42.515625 139.664062 42.429688 C 139.863281 42.347656 140.074219 42.304688 140.292969 42.308594 Z M 140.292969 42.308594 "/>
<path style=" stroke:none;fill-rule:nonzero;fill:rgb(89.408875%,14.509583%,11.759949%);fill-opacity:1;" d="M 144.984375 28.5 C 145.210938 28.496094 145.429688 28.539062 145.640625 28.628906 C 145.835938 28.710938 146.011719 28.824219 146.167969 28.972656 C 146.320312 29.121094 146.441406 29.292969 146.527344 29.488281 C 146.710938 29.914062 146.710938 30.339844 146.527344 30.765625 C 146.441406 30.960938 146.320312 31.136719 146.167969 31.289062 C 146.015625 31.4375 145.839844 31.554688 145.640625 31.636719 C 145.207031 31.816406 144.773438 31.816406 144.339844 31.636719 C 144.140625 31.554688 143.964844 31.4375 143.8125 31.289062 C 143.664062 31.136719 143.546875 30.960938 143.460938 30.765625 C 143.28125 30.339844 143.28125 29.914062 143.460938 29.488281 C 143.546875 29.292969 143.664062 29.125 143.8125 28.972656 C 143.96875 28.824219 144.140625 28.710938 144.339844 28.628906 C 144.542969 28.539062 144.761719 28.496094 144.984375 28.5 Z M 143.835938 33.574219 L 146.167969 33.574219 L 146.167969 45.046875 L 143.835938 45.046875 Z M 143.835938 33.574219 "/>
<path style=" stroke:none;fill-rule:nonzero;fill:rgb(89.408875%,14.509583%,11.759949%);fill-opacity:1;" d="M 153.171875 35.835938 L 153.171875 40.460938 L 153.191406 40.460938 C 153.191406 40.769531 153.253906 41.066406 153.375 41.351562 C 153.496094 41.628906 153.660156 41.875 153.875 42.089844 C 154.089844 42.300781 154.335938 42.460938 154.613281 42.578125 C 154.898438 42.703125 155.195312 42.761719 155.503906 42.761719 L 155.503906 45.066406 C 154.871094 45.078125 154.265625 44.964844 153.679688 44.726562 C 153.125 44.488281 152.632812 44.160156 152.203125 43.738281 C 151.78125 43.308594 151.453125 42.8125 151.226562 42.257812 C 150.972656 41.683594 150.847656 41.085938 150.851562 40.460938 L 150.851562 35.835938 L 148.527344 35.835938 L 148.527344 33.5625 L 150.851562 33.5625 L 150.851562 28.957031 L 153.1875 28.957031 L 153.1875 33.5625 L 155.519531 33.5625 L 155.519531 35.835938 Z M 153.171875 35.835938 "/>
</g>
</svg>
